<svg width="1054" height="398" viewBox="0 0 1054 398" fill="none" xmlns="http://www.w3.org/2000/svg">
<path d="M903.86 3.65045C875.34 -1.32585 832.11 -6.68035 772.17 40.4751C726.11 76.7125 738.17 108.869 703.28 134.099C630.76 186.629 553.28 111.407 451.86 153.935C373.3 186.878 365.49 256.735 289.56 274.779C220.36 291.221 185.35 216.208 105.86 234.551C47.71 247.967 0 288.295 0 331.788C0 345.722 7.12 364.373 21.83 377.142C41.78 394.469 65.83 397.774 103.83 397.774H865.83C943.83 397.774 995 363.517 1024.83 310.678C1043.4 277.835 1053.95 239.796 1053.83 201.568C1053.59 117.379 1010.01 22.1225 903.86 3.65045Z" fill="#F0F0F0"/>
<path d="M330.58 367.438H80.39C65.74 367.438 53.86 369.547 53.86 372.155C53.86 374.763 65.74 376.873 80.39 376.873H330.58C345.24 376.873 357.12 374.763 357.12 372.155C357.12 369.547 345.24 367.438 330.58 367.438Z" fill="#E3E3E3"/>
<path d="M149.94 333.25H123.38V353.812H149.94V333.25Z" fill="#695532"/>
<path fill-rule="evenodd" clip-rule="evenodd" d="M304.22 353.832H108.62C107.055 353.837 105.556 354.459 104.45 355.561C103.345 356.663 102.723 358.157 102.72 359.714V365.586C102.723 364.03 103.345 362.537 104.451 361.437C105.557 360.336 107.056 359.717 108.62 359.714H304.22C305.784 359.717 307.283 360.336 308.389 361.437C309.495 362.537 310.117 364.03 310.12 365.586V359.714C310.117 358.157 309.495 356.663 308.39 355.561C307.284 354.459 305.785 353.837 304.22 353.832Z" fill="#6FBF5C"/>
<path fill-rule="evenodd" clip-rule="evenodd" d="M304.22 359.695H108.62C107.845 359.695 107.078 359.847 106.362 360.142C105.646 360.437 104.996 360.87 104.448 361.415C103.9 361.96 103.466 362.608 103.169 363.32C102.873 364.033 102.72 364.796 102.72 365.567C102.72 366.338 102.873 367.102 103.169 367.814C103.466 368.527 103.9 369.174 104.448 369.719C104.996 370.265 105.646 370.697 106.362 370.992C107.078 371.288 107.845 371.439 108.62 371.439H304.22C305.785 371.439 307.285 370.821 308.392 369.719C309.498 368.618 310.12 367.125 310.12 365.567C310.12 364.01 309.498 362.516 308.392 361.415C307.285 360.314 305.785 359.695 304.22 359.695Z" fill="#5A9C4B"/>
<path d="M277.66 342.068H254.05V347.94H277.66V342.068Z" fill="#E5A163"/>
<path d="M234.86 301.233C230.751 299.13 226.201 298.022 221.58 297.998H176.86C168.907 298.03 161.091 300.053 154.13 303.88L152.95 304.467C146.718 307.893 141.518 312.912 137.887 319.005C134.255 325.099 132.323 332.047 132.29 339.132V353.832H269.99V333.25L254.93 316.211C249.199 310.058 242.4 304.984 234.86 301.233Z" fill="#CC8729"/>
<path d="M117.48 342.656C117.501 350.285 120.556 357.596 125.977 362.989C131.398 368.383 138.745 371.421 146.41 371.439H179.46C177.658 368.719 175.202 366.489 172.316 364.951C169.43 363.413 166.204 362.616 162.93 362.631H146.41C141.088 362.626 135.985 360.52 132.221 356.776C128.456 353.031 126.338 347.953 126.33 342.656L141.09 315.625L128.99 322.98C127.297 323.987 125.715 325.168 124.27 326.503C119.945 330.779 117.503 336.589 117.48 342.656Z" fill="#CC8729"/>
<path d="M154.67 371.439H179.46C177.658 368.719 175.202 366.489 172.316 364.951C169.43 363.413 166.204 362.616 162.93 362.631H154.67C155.543 363.93 155.958 365.481 155.85 367.04C155.813 368.579 155.408 370.087 154.67 371.439Z" fill="white"/>
<path d="M184.36 342.068H175.51V353.832H199.12C199.12 347.353 192.63 342.068 184.36 342.068Z" fill="white"/>
<path d="M176.86 342.069L179.22 344.119C179.704 344.424 180.111 344.834 180.412 345.319C180.713 345.804 180.898 346.35 180.955 346.917C181.012 347.484 180.939 348.056 180.74 348.591C180.542 349.125 180.224 349.608 179.81 350.001L176.56 353.833H129.86C126.03 350.021 123.37 345.025 123.37 339.74V339.153C123.388 332.926 125.882 326.958 130.305 322.554C134.728 318.15 140.723 315.666 146.98 315.645C149.698 315.628 152.393 316.148 154.908 317.175C157.423 318.202 159.708 319.716 161.631 321.629C163.554 323.541 165.076 325.815 166.109 328.317C167.142 330.82 167.666 333.501 167.65 336.207V342.089L176.86 342.069Z" fill="#E0AB60"/>
<path d="M244.61 320.92L253.17 306.817C250.468 306.79 247.809 307.484 245.468 308.826C243.128 310.169 241.191 312.111 239.86 314.451L236.86 319.746C234.294 324.105 230.761 327.822 226.53 330.614L227.71 335.013C227.931 335.727 227.998 336.48 227.905 337.222C227.812 337.964 227.563 338.678 227.172 339.316C226.782 339.955 226.26 340.504 225.641 340.927C225.022 341.35 224.319 341.638 223.58 341.771L220.58 342.358C221.746 343.821 223.302 344.929 225.07 345.553C226.839 346.178 228.748 346.295 230.58 345.891L236.48 344.119C241.47 342.702 246.641 342.011 251.83 342.069H253.01L246.22 335.311C244.346 333.453 243.165 331.014 242.872 328.398C242.579 325.781 243.192 323.143 244.61 320.92Z" fill="white"/>
<path d="M222.47 333.25C221.129 334.026 220.137 335.283 219.698 336.764C219.259 338.245 219.407 339.837 220.11 341.213C220.4 341.8 220.7 342.098 220.99 342.685L223.94 342.098C224.665 341.938 225.349 341.633 225.953 341.203C226.557 340.773 227.067 340.227 227.454 339.596C227.841 338.965 228.095 338.263 228.203 337.532C228.31 336.8 228.269 336.055 228.08 335.34L226.86 330.941L222.47 333.25Z" fill="#503E52"/>
<path d="M280.61 324.442C279.644 323.479 278.88 322.333 278.365 321.071C277.85 319.81 277.593 318.459 277.61 317.097C277.61 311.225 272.61 306.816 266.69 306.816H259.9L263.44 311.793C264.992 314.252 265.829 317.09 265.86 319.994V330.275C265.871 333.389 267.118 336.372 269.331 338.574C271.543 340.776 274.541 342.018 277.67 342.029H289.48L292.43 336.157L280.61 324.442Z" fill="white"/>
<path d="M262.02 306.816H253.16L244.61 321.208C243.281 323.365 242.732 325.91 243.054 328.42C243.375 330.93 244.549 333.256 246.38 335.012L253.46 342.069H280.02C276.892 342.058 273.895 340.816 271.684 338.614C269.473 336.411 268.228 333.428 268.22 330.315V319.994C268.206 317.09 267.389 314.246 265.86 311.773L262.02 306.816Z" fill="white"/>
<path d="M280.61 324.442C279.644 323.479 278.88 322.333 278.365 321.071C277.85 319.81 277.593 318.459 277.61 317.097C277.61 311.225 272.61 306.816 266.69 306.816H259.9L263.44 311.793C264.992 314.252 265.829 317.09 265.86 319.994V330.275C265.871 333.389 267.118 336.372 269.331 338.574C271.543 340.776 274.541 342.018 277.67 342.029H289.48L292.43 336.157L280.61 324.442Z" fill="#503E52"/>
<path d="M262.02 306.816H253.16L244.61 321.208C243.281 323.365 242.732 325.91 243.054 328.42C243.375 330.93 244.549 333.256 246.38 335.012L253.46 342.069H280.02C276.892 342.058 273.895 340.816 271.684 338.614C269.473 336.411 268.228 333.428 268.22 330.315V319.994C268.206 317.09 267.389 314.246 265.86 311.773L262.02 306.816Z" fill="#E0AB60"/>
<path d="M255.86 327.378C255.57 327.079 254.68 326.791 254.38 327.08L254.09 327.378C253.652 327.665 253.139 327.818 252.615 327.818C252.091 327.818 251.578 327.665 251.14 327.378L250.84 327.08C250.25 326.791 249.66 326.791 249.37 327.378C249.07 327.667 248.78 328.553 249.07 328.851L249.96 329.727C250.726 330.299 251.657 330.609 252.615 330.609C253.573 330.609 254.504 330.299 255.27 329.727L256.16 328.851C256.247 328.738 256.309 328.608 256.341 328.469C256.374 328.33 256.376 328.186 256.347 328.047C256.319 327.907 256.261 327.775 256.177 327.66C256.093 327.544 255.985 327.448 255.86 327.378Z" fill="#A36C21"/>
<path d="M289.17 353.832C286.834 353.832 284.55 353.143 282.608 351.851C280.665 350.559 279.152 348.722 278.258 346.574C277.364 344.426 277.131 342.062 277.588 339.782C278.044 337.501 279.17 335.407 280.823 333.763C282.475 332.12 284.581 331.001 286.872 330.549C289.164 330.096 291.539 330.331 293.696 331.222C295.854 332.113 297.698 333.621 298.995 335.555C300.291 337.49 300.982 339.763 300.98 342.088C300.972 345.202 299.725 348.186 297.512 350.387C295.298 352.588 292.299 353.827 289.17 353.832Z" fill="#F0D37F"/>
<path d="M289.18 330.314H288.59V330.941C288.598 334.055 289.843 337.038 292.054 339.241C294.265 341.443 297.262 342.685 300.39 342.695H300.98V342.108C300.983 338.988 299.742 335.994 297.53 333.783C295.318 331.573 292.315 330.325 289.18 330.314Z" fill="#FFECA1"/>
<path d="M264.67 353.832H287.67C287.67 347.373 281.18 342.088 272.92 342.088H264.65L267.01 344.138C267.492 344.444 267.898 344.855 268.198 345.34C268.497 345.824 268.682 346.37 268.739 346.937C268.796 347.503 268.723 348.075 268.526 348.609C268.328 349.143 268.012 349.625 267.6 350.02L264.67 353.832Z" fill="white"/>
<path d="M166.18 299.471C170.11 303.364 172.338 308.643 172.38 314.161C172.369 315.128 172.553 316.087 172.919 316.982C173.285 317.878 173.828 318.691 174.514 319.375C175.201 320.059 176.017 320.6 176.916 320.966C177.815 321.332 178.779 321.516 179.75 321.506H196.75C199.469 321.524 202.165 321.003 204.68 319.976C207.196 318.948 209.482 317.433 211.404 315.519C213.327 313.606 214.849 311.331 215.882 308.827C216.914 306.324 217.437 303.641 217.42 300.934V297.949H176.8C173.117 297.92 169.444 298.332 165.86 299.173L166.18 299.471Z" fill="#E0AB60"/>
<path d="M505.86 367.438H749.86L665.94 127.869H591.67L505.86 367.438Z" fill="#F7F7F7"/>
<path d="M631.83 124.098H626.14V361.776H631.83V124.098Z" fill="#DBDBDB"/>
<path d="M652.07 359.895H605.65C604.645 359.895 603.681 360.292 602.97 360.999C602.259 361.707 601.86 362.666 601.86 363.667V367.439H655.86V363.667C655.86 362.666 655.461 361.707 654.75 360.999C654.039 360.292 653.075 359.895 652.07 359.895Z" fill="#C7C7C7"/>
<path d="M669.73 120.326H588.23L602.86 62.9687C603.831 59.9092 605.756 57.2372 608.356 55.3403C610.956 53.4433 614.096 52.4201 617.32 52.4189H640.58C643.804 52.4185 646.945 53.4412 649.545 55.3383C652.145 57.2355 654.07 59.9084 655.04 62.9687L669.73 120.326Z" fill="#FFECA1"/>
<path d="M655.07 62.9687C654.1 59.9084 652.175 57.2355 649.575 55.3383C646.975 53.4412 643.834 52.4185 640.61 52.4189H621.95C625.174 52.4185 628.315 53.4412 630.915 55.3383C633.515 57.2355 635.44 59.9084 636.41 62.9687L650.78 120.326H669.78L655.07 62.9687Z" fill="#F0D37F"/>
<path d="M588.23 120.326H669.73V125.92C669.73 126.447 669.519 126.954 669.144 127.327C668.769 127.7 668.26 127.91 667.73 127.91H590.23C589.7 127.91 589.191 127.7 588.816 127.327C588.441 126.954 588.23 126.447 588.23 125.92V120.366V120.326Z" fill="#F0D37F"/>
<path d="M573.18 295.113H577.5C578.778 295.113 580.004 295.619 580.908 296.518C581.812 297.418 582.32 298.638 582.32 299.91V305.474C582.32 306.104 582.195 306.728 581.953 307.31C581.711 307.892 581.356 308.421 580.908 308.866C580.461 309.312 579.929 309.665 579.345 309.906C578.76 310.147 578.133 310.271 577.5 310.271H573.18V295.113Z" fill="#F0D37F"/>
<path d="M570.13 290.586V308.769C570.13 310.377 569.488 311.919 568.346 313.055C567.204 314.192 565.655 314.83 564.04 314.83H570.13C570.93 314.832 571.723 314.676 572.462 314.372C573.202 314.068 573.873 313.621 574.439 313.058C575.005 312.495 575.454 311.826 575.759 311.09C576.065 310.354 576.221 309.566 576.22 308.769V290.586H570.13Z" fill="#F0D37F"/>
<path d="M570.13 308.769V290.586H551.86V308.769C551.86 309.565 552.017 310.353 552.324 311.089C552.63 311.824 553.078 312.492 553.644 313.055C554.209 313.618 554.881 314.065 555.619 314.369C556.358 314.674 557.15 314.831 557.95 314.831H564.04C565.655 314.831 567.204 314.192 568.346 313.055C569.488 311.919 570.13 310.377 570.13 308.769Z" fill="#FFECA1"/>
<path d="M589.86 321.768H478.08V327.829H589.86V321.768Z" fill="#C7C7C7"/>
<path d="M484.17 369.331H478.08V314.83H489.41L484.17 369.331Z" fill="#DBDBDB"/>
<path d="M503.25 369.331H509.34V314.83H496.99L503.25 369.331Z" fill="#C7C7C7"/>
<path d="M564.71 369.331H558.62V314.83H570.91L564.71 369.331Z" fill="#DBDBDB"/>
<path d="M583.77 369.331H589.86V314.83H578.49L583.77 369.331Z" fill="#C7C7C7"/>
<path d="M589.86 314.621H478.08V322.165H589.86V314.621Z" fill="#DBDBDB"/>
<path fill-rule="evenodd" clip-rule="evenodd" d="M598.63 239.937L598.18 238.255C597.677 236.343 596.553 234.651 594.983 233.441C593.413 232.231 591.485 231.572 589.5 231.566H589.24C584.01 231.716 581.09 237.08 583.58 242.056C584.386 243.575 584.606 245.335 584.196 247.004C583.787 248.673 582.778 250.135 581.36 251.113L572.09 257.294C570.398 258.438 568.996 259.958 567.995 261.733C566.993 263.509 566.42 265.492 566.32 267.525C566.213 270.285 566.819 273.027 568.08 275.487L569.27 277.926C570.13 279.707 572.47 279.209 572.76 277.179L573.29 273.367C573.478 270.292 574.763 267.384 576.913 265.167C579.064 262.95 581.938 261.57 585.02 261.275C593.07 260.409 599.16 254.059 599.35 245.351C599.366 243.521 599.124 241.699 598.63 239.937Z" fill="white"/>
<path d="M901.186 367H458.814C444 367 432 369.236 432 372C432 374.764 444 377 458.814 377H901.186C915.991 377 928 374.764 928 372C928 369.236 915.991 367 901.186 367Z" fill="#E3E3E3"/>
<path fill-rule="evenodd" clip-rule="evenodd" d="M886.99 372.414H890.58L881.79 339.57H864.98L886.99 372.414Z" fill="#230545"/>
<path fill-rule="evenodd" clip-rule="evenodd" d="M783.61 338.039H797.43L774.43 372.415H770.52L779.74 338.039H783.61Z" fill="#230545"/>
<path fill-rule="evenodd" clip-rule="evenodd" d="M682.91 265.811L806.86 232.689C816.78 230.231 823.78 224.657 829.46 217.631C830.669 216.142 831.778 214.576 832.78 212.943C835.636 208.736 837.721 204.059 838.94 199.129L849.11 161.379C849.285 160.646 849.516 159.927 849.8 159.229C849.832 159.101 849.879 158.977 849.94 158.861C850.231 158.177 850.565 157.512 850.94 156.87L851.03 156.741C852.224 154.667 853.823 152.852 855.733 151.402C857.643 149.953 859.825 148.898 862.15 148.301C863.62 147.896 865.135 147.682 866.66 147.664H873.44C875.493 147.665 877.519 148.132 879.364 149.029C881.209 149.925 882.824 151.228 884.088 152.839C885.351 154.449 886.23 156.325 886.656 158.324C887.083 160.323 887.047 162.392 886.55 164.374L849.08 312.837C846.692 322.593 841.08 331.268 833.144 337.467C825.208 343.667 815.409 347.033 805.32 347.025H685.32C682.933 347.025 680.644 346.081 678.956 344.401C677.268 342.721 676.32 340.443 676.32 338.067V274.46C676.316 272.499 676.958 270.592 678.149 269.029C679.339 267.467 681.012 266.336 682.91 265.811Z" fill="#CC8729"/>
<path fill-rule="evenodd" clip-rule="evenodd" d="M665.04 266.857L788.86 234.163C800.585 231.178 810.739 223.884 817.28 213.75C818.898 211.322 820.129 208.66 820.93 205.857L833.28 161.23C834.252 157.346 836.502 153.899 839.672 151.437C842.842 148.974 846.749 147.639 850.77 147.645H871.23C869.709 147.662 868.196 147.876 866.73 148.282C863.575 149.09 860.7 150.735 858.41 153.041C856.121 155.348 854.503 158.23 853.73 161.379L840.27 206.454C839.005 210.568 836.894 214.374 834.07 217.631C828.38 224.658 821.39 230.231 811.46 232.69L687.5 265.812C685.587 266.322 683.896 267.446 682.691 269.01C681.485 270.574 680.831 272.489 680.83 274.461V338.038C680.83 340.414 681.778 342.692 683.466 344.372C685.154 346.052 687.443 346.995 689.83 346.995H672.86C670.937 346.997 669.033 346.621 667.256 345.889C665.479 345.157 663.865 344.084 662.505 342.731C661.145 341.377 660.067 339.77 659.332 338.002C658.596 336.234 658.219 334.338 658.22 332.425V275.546C658.22 273.548 658.892 271.607 660.128 270.033C661.363 268.459 663.092 267.341 665.04 266.857Z" fill="#FFB652"/>
<path fill-rule="evenodd" clip-rule="evenodd" d="M930.79 152.891H874.09C870.074 152.892 866.174 154.23 863.01 156.692C859.846 159.153 857.601 162.598 856.63 166.476L819.63 309.654H907.45L943.69 169.591C944.18 167.628 944.22 165.579 943.805 163.599C943.39 161.618 942.532 159.756 941.294 158.151C940.057 156.546 938.471 155.24 936.656 154.329C934.841 153.418 932.842 152.927 930.81 152.891H930.79Z" fill="#FFB652"/>
<path fill-rule="evenodd" clip-rule="evenodd" d="M951.46 168.913L915.05 309.652H795.23L808.92 255.023L855.6 243.408L856.43 243.179C860.743 242 864.808 240.058 868.43 237.446C877.57 230.798 885.98 220.766 888.52 210.634L900.98 165.728C901.95 161.851 904.194 158.408 907.356 155.947C910.518 153.485 914.416 152.146 918.43 152.143H936.02V152.391C936.887 152.252 937.762 152.172 938.64 152.153C940.674 152.197 942.672 152.697 944.486 153.616C946.299 154.535 947.88 155.85 949.112 157.462C950.344 159.073 951.195 160.941 951.602 162.925C952.008 164.909 951.96 166.96 951.46 168.923V168.913Z" fill="#CC8729"/>
<path d="M681.43 341.034H762.63C765.997 341.032 769.226 339.699 771.607 337.329C773.988 334.96 775.327 331.746 775.33 328.395V307.345C775.327 303.993 773.988 300.78 771.607 298.41C769.226 296.04 765.997 294.708 762.63 294.705H681.43C678.063 294.708 674.836 296.041 672.456 298.411C670.077 300.781 668.74 303.994 668.74 307.345V328.395C668.74 331.745 670.077 334.959 672.456 337.329C674.836 339.699 678.063 341.032 681.43 341.034Z" fill="#CC8729"/>
<path fill-rule="evenodd" clip-rule="evenodd" d="M680.74 291.719C678.353 291.719 676.064 292.662 674.376 294.342C672.688 296.022 671.74 298.3 671.74 300.676V327.548C671.74 329.924 672.688 332.202 674.376 333.882C676.064 335.562 678.353 336.505 680.74 336.505H754.3V291.719H680.74Z" fill="#FFB652"/>
<path fill-rule="evenodd" clip-rule="evenodd" d="M709.27 336.545H716.78L734.78 291.758H727.27L709.27 336.545Z" fill="#CC8729"/>
<path fill-rule="evenodd" clip-rule="evenodd" d="M770.86 336.545H748.3L752.8 291.758H770.8L770.86 336.545Z" fill="#CC8729"/>
<path fill-rule="evenodd" clip-rule="evenodd" d="M851.43 189.555C854.139 190.088 856.716 191.147 859.014 192.673C861.311 194.199 863.283 196.16 864.818 198.445C866.352 200.731 867.419 203.295 867.956 205.991C868.494 208.687 868.492 211.462 867.95 214.158L858.86 259.591C858.591 260.939 858.057 262.22 857.291 263.363C856.524 264.505 855.538 265.486 854.391 266.249C853.243 267.013 851.955 267.544 850.601 267.812C849.248 268.08 847.854 268.08 846.5 267.812C845.146 267.544 843.858 267.013 842.711 266.25C841.563 265.487 840.577 264.506 839.81 263.364C839.043 262.222 838.51 260.94 838.24 259.593C837.971 258.245 837.971 256.858 838.24 255.511L851.43 189.555Z" fill="#CC8729"/>
<path d="M828.16 228.599C829.341 227.851 830.359 226.875 831.156 225.729C831.952 224.584 832.511 223.291 832.799 221.928C833.087 220.565 833.098 219.158 832.832 217.79C832.567 216.422 832.029 215.121 831.251 213.963C830.473 212.805 829.47 211.813 828.302 211.046C827.133 210.278 825.823 209.751 824.447 209.495C823.071 209.239 821.657 209.258 820.289 209.553C818.921 209.848 817.626 210.412 816.48 211.212L769.04 242.752C767.892 243.515 766.907 244.496 766.14 245.638C765.373 246.78 764.84 248.062 764.57 249.409C764.301 250.757 764.301 252.144 764.57 253.491C764.84 254.839 765.373 256.12 766.14 257.263C766.907 258.405 767.892 259.386 769.04 260.149C770.188 260.912 771.475 261.443 772.829 261.711C774.183 261.979 775.577 261.979 776.931 261.711C778.285 261.443 779.572 260.912 780.72 260.149L828.16 228.599Z" fill="#5A9C4B"/>
<path fill-rule="evenodd" clip-rule="evenodd" d="M842.39 182.648H818.61C816.225 182.649 813.864 183.124 811.666 184.045C809.468 184.966 807.477 186.315 805.81 188.013C807.405 186.421 809.283 185.138 811.35 184.231V190.282L802.55 201.23C801.567 202.404 800.902 203.808 800.619 205.31C800.335 206.811 800.442 208.36 800.93 209.809L804.1 218.766L796.34 257.363H838.34L851.19 193.377C851.454 192.076 851.424 190.733 851.102 189.445C850.78 188.157 850.175 186.957 849.33 185.93C848.485 184.903 847.421 184.076 846.216 183.509C845.011 182.941 843.693 182.647 842.36 182.648H842.39Z" fill="#5A9C4B"/>
<path fill-rule="evenodd" clip-rule="evenodd" d="M800.93 209.789C800.444 208.34 800.338 206.79 800.624 205.288C800.909 203.787 801.576 202.383 802.56 201.21L811.35 190.262V184.211C809.285 185.121 807.406 186.403 805.81 187.993L805.67 188.122C805.124 188.658 804.62 189.234 804.16 189.844L795.02 201.2C794.762 201.512 794.531 201.845 794.33 202.195C794.125 202.513 793.944 202.846 793.79 203.191C792.8 205.269 792.66 207.65 793.4 209.829L796.57 218.786L788.86 257.353H796.37L804.13 218.737L800.93 209.789Z" fill="#6FBF5C"/>
<path d="M818.86 261.832C821.233 261.832 823.553 261.131 825.527 259.819C827.5 258.506 829.038 256.641 829.947 254.459C830.855 252.277 831.092 249.875 830.629 247.558C830.166 245.242 829.023 243.114 827.345 241.443C825.667 239.773 823.529 238.636 821.201 238.175C818.873 237.714 816.461 237.95 814.268 238.854C812.075 239.758 810.201 241.289 808.882 243.253C807.564 245.217 806.86 247.526 806.86 249.888C806.86 253.056 808.124 256.094 810.375 258.333C812.625 260.573 815.677 261.832 818.86 261.832Z" fill="#5A9C4B"/>
<path fill-rule="evenodd" clip-rule="evenodd" d="M822.05 291.718L836.39 255.889H834.86L831.86 263.353H726.19C724.314 263.493 722.513 264.142 720.983 265.23C719.452 266.318 718.251 267.803 717.51 269.524L684.15 353.016H703.26L728.15 291.748L822.05 291.718Z" fill="#230545"/>
<path fill-rule="evenodd" clip-rule="evenodd" d="M730.48 255.859H728.98C721.47 255.859 713.07 261.831 710.09 269.305L676.24 352.987H684.15L717.51 269.494C718.251 267.774 719.452 266.289 720.983 265.201C722.513 264.113 724.314 263.464 726.19 263.324H831.86L834.86 255.859H730.48Z" fill="#544463"/>
<path fill-rule="evenodd" clip-rule="evenodd" d="M650.26 370.921H702.26C702.525 370.921 702.78 370.816 702.967 370.629C703.155 370.442 703.26 370.189 703.26 369.925V353.006H676.26L660.26 360.102C653.93 362.939 649.74 363.605 649.32 369.866C649.312 369.996 649.33 370.127 649.373 370.251C649.416 370.375 649.483 370.489 649.57 370.587C649.657 370.685 649.763 370.765 649.882 370.822C650 370.88 650.129 370.913 650.26 370.921Z" fill="#9C452D"/>
<path fill-rule="evenodd" clip-rule="evenodd" d="M680 370.922H738C738.265 370.922 738.52 370.818 738.707 370.631C738.895 370.444 739 370.191 739 369.927V353.008L713.86 350.102L689.97 360.054C683.64 362.891 679.45 363.558 679.03 369.818C679.015 369.955 679.028 370.094 679.07 370.225C679.111 370.357 679.18 370.478 679.271 370.582C679.362 370.686 679.474 370.77 679.6 370.829C679.725 370.887 679.861 370.919 680 370.922Z" fill="#E37151"/>
<path fill-rule="evenodd" clip-rule="evenodd" d="M767.76 269.305L714.86 348.587C714.737 348.772 714.656 348.982 714.624 349.201C714.592 349.421 714.609 349.644 714.674 349.857C714.739 350.069 714.85 350.264 715 350.428C715.15 350.592 715.334 350.722 715.54 350.807L720.04 352.688L739.04 360.59L791.86 281.646C793.063 279.847 793.812 277.786 794.045 275.638C794.279 273.49 793.989 271.318 793.2 269.305H767.76Z" fill="#230545"/>
<path fill-rule="evenodd" clip-rule="evenodd" d="M785.46 263.323H788.66L788.24 262.995C786.764 262.012 785.108 261.329 783.367 260.984C781.626 260.638 779.833 260.638 778.092 260.983C776.35 261.328 774.694 262.011 773.218 262.993C771.742 263.975 770.476 265.237 769.49 266.707L713.86 350.1L720.12 352.688L775.52 269.693C777.86 266.249 780.96 263.323 785.46 263.323Z" fill="#544463"/>
<path fill-rule="evenodd" clip-rule="evenodd" d="M791.86 252.865C791.86 247.082 785.13 242.404 776.86 242.404C768.59 242.404 761.86 247.082 761.86 252.865H791.86Z" fill="#FFC680"/>
<path fill-rule="evenodd" clip-rule="evenodd" d="M837.86 249.639L848.77 195.318C849.12 193.643 849.886 192.082 850.999 190.778C852.112 189.474 853.536 188.469 855.14 187.854C854.573 187.619 853.983 187.443 853.38 187.326C850.708 186.806 847.938 187.356 845.671 188.856C843.404 190.356 841.822 192.685 841.27 195.338L830.35 249.659C829.997 251.46 830.138 253.322 830.756 255.05C831.375 256.778 832.449 258.309 833.866 259.482C835.283 260.655 836.991 261.427 838.81 261.718C840.63 262.009 842.495 261.807 844.21 261.135C841.967 260.261 840.103 258.632 838.943 256.532C837.783 254.431 837.399 251.992 837.86 249.639Z" fill="#6FBF5C"/>
<path fill-rule="evenodd" clip-rule="evenodd" d="M850.54 253.63L861.44 199.308C862.157 198.407 862.642 197.345 862.855 196.215C863.068 195.084 863.002 193.92 862.662 192.821C862.323 191.722 861.72 190.721 860.906 189.905C860.091 189.09 859.09 188.483 857.988 188.138C856.886 187.793 855.716 187.719 854.579 187.924C853.442 188.128 852.372 188.605 851.461 189.312C850.55 190.02 849.826 190.937 849.35 191.985C848.874 193.032 848.662 194.18 848.73 195.327L837.86 249.619C837.14 250.522 836.652 251.585 836.437 252.718C836.223 253.851 836.288 255.018 836.628 256.12C836.967 257.222 837.571 258.225 838.387 259.043C839.203 259.861 840.207 260.469 841.312 260.814C842.416 261.16 843.589 261.233 844.728 261.028C845.868 260.822 846.94 260.343 847.852 259.633C848.764 258.923 849.489 258.003 849.965 256.952C850.44 255.901 850.651 254.75 850.58 253.6L850.54 253.63Z" fill="#5A9C4B"/>
<path fill-rule="evenodd" clip-rule="evenodd" d="M824.86 252.865C824.86 247.082 818.14 242.404 809.86 242.404C801.58 242.404 794.86 247.082 794.86 252.865H824.86Z" fill="#FFC680"/>
<path fill-rule="evenodd" clip-rule="evenodd" d="M765.56 205.051H719.28C718.814 205.051 718.355 205.159 717.938 205.366C717.522 205.574 717.159 205.875 716.88 206.246C716.601 206.616 716.412 207.047 716.328 207.503C716.245 207.959 716.27 208.428 716.4 208.873L729.65 253.66C729.83 254.283 730.21 254.832 730.732 255.221C731.253 255.611 731.888 255.821 732.54 255.819H778.86C779.328 255.82 779.79 255.711 780.209 255.502C780.627 255.293 780.991 254.989 781.27 254.615C781.549 254.244 781.738 253.814 781.822 253.358C781.905 252.902 781.88 252.433 781.75 251.988L768.49 207.201C768.306 206.572 767.919 206.022 767.39 205.633C766.861 205.245 766.218 205.04 765.56 205.051Z" fill="#E5E5E5"/>
<path fill-rule="evenodd" clip-rule="evenodd" d="M770.86 249.879H809.86C810.258 249.879 810.639 250.036 810.921 250.316C811.202 250.596 811.36 250.976 811.36 251.372V254.358C811.36 254.754 811.202 255.133 810.921 255.413C810.639 255.693 810.258 255.851 809.86 255.851H770.86V249.879Z" fill="#E5E5E5"/>
<path fill-rule="evenodd" clip-rule="evenodd" d="M786.49 265.811L880.41 232.689C890.33 230.231 897.33 224.657 903.01 217.631C904.219 216.142 905.328 214.576 906.33 212.943C909.179 208.733 911.26 204.057 912.48 199.129L922.66 161.379C922.837 160.647 923.064 159.929 923.34 159.229C923.38 159.102 923.43 158.979 923.49 158.861C923.761 158.176 924.078 157.511 924.44 156.87L924.53 156.741C925.724 154.667 927.323 152.852 929.233 151.402C931.143 149.953 933.325 148.898 935.65 148.301C937.12 147.896 938.635 147.682 940.16 147.664H946.94C948.993 147.665 951.019 148.132 952.864 149.029C954.709 149.925 956.324 151.228 957.588 152.839C958.851 154.449 959.73 156.325 960.156 158.324C960.583 160.323 960.547 162.392 960.05 164.374L922.58 312.837C920.19 322.583 914.582 331.248 906.655 337.443C898.727 343.638 888.939 347.006 878.86 347.005H788.86C786.473 347.005 784.184 346.061 782.496 344.381C780.808 342.701 779.86 340.423 779.86 338.047V274.46C779.858 272.494 780.507 270.582 781.705 269.019C782.903 267.456 784.584 266.329 786.49 265.811Z" fill="#CC8729"/>
<path fill-rule="evenodd" clip-rule="evenodd" d="M924.3 147.645C920.287 147.65 916.392 148.99 913.232 151.452C910.073 153.913 907.83 157.355 906.86 161.23L894.51 205.857C893.7 208.656 892.47 211.317 890.86 213.75C884.43 223.941 873.86 230.271 862.44 234.163L768.66 266.857C766.712 267.341 764.983 268.459 763.748 270.033C762.512 271.607 761.84 273.548 761.84 275.545V332.435C761.84 334.349 762.219 336.244 762.955 338.013C763.692 339.781 764.771 341.388 766.131 342.741C767.492 344.094 769.107 345.167 770.884 345.899C772.662 346.631 774.567 347.007 776.49 347.005H798.65C796.727 347.007 794.822 346.631 793.044 345.899C791.267 345.167 789.652 344.094 788.292 342.741C786.931 341.388 785.852 339.781 785.115 338.013C784.379 336.244 784 334.349 784 332.435V274.461C784.073 272.46 784.794 270.537 786.056 268.978C787.317 267.42 789.052 266.309 791 265.812L884.91 232.69C894.6 229.425 901.83 224.658 907.52 217.631C910.351 214.38 912.464 210.571 913.72 206.454L927.18 161.379C927.953 158.23 929.571 155.348 931.86 153.041C934.15 150.735 937.025 149.09 940.18 148.282C941.646 147.876 943.159 147.662 944.68 147.645H924.3Z" fill="#FFB652"/>
<path fill-rule="evenodd" clip-rule="evenodd" d="M761.06 205.052H709.78C709.542 205.042 709.305 205.089 709.089 205.189C708.873 205.289 708.684 205.438 708.538 205.625C708.391 205.811 708.291 206.03 708.246 206.263C708.202 206.495 708.213 206.735 708.28 206.963L722.09 253.74C722.273 254.372 722.66 254.926 723.191 255.317C723.723 255.707 724.369 255.912 725.03 255.9H778.33L763.94 207.242C763.766 206.614 763.39 206.06 762.87 205.665C762.35 205.27 761.714 205.054 761.06 205.052Z" fill="white"/>
<path fill-rule="evenodd" clip-rule="evenodd" d="M743.54 225.973H740.19C739.725 225.973 739.267 226.081 738.852 226.288C738.436 226.494 738.074 226.794 737.795 227.164C737.516 227.534 737.327 227.963 737.243 228.417C737.158 228.872 737.181 229.34 737.31 229.784L738.17 232.77C738.348 233.394 738.725 233.943 739.245 234.335C739.765 234.726 740.398 234.939 741.05 234.94H744.39C744.855 234.941 745.315 234.834 745.732 234.628C746.148 234.422 746.511 234.122 746.792 233.753C747.072 233.383 747.262 232.953 747.347 232.498C747.432 232.042 747.409 231.573 747.28 231.128L746.42 228.142C746.242 227.518 745.864 226.969 745.345 226.578C744.825 226.186 744.192 225.974 743.54 225.973Z" fill="#E5E5E5"/>
<path fill-rule="evenodd" clip-rule="evenodd" d="M784.99 132.348L784.88 132.557C783.877 134.525 783.4 136.717 783.494 138.922C783.587 141.127 784.248 143.271 785.414 145.148C786.579 147.026 788.21 148.574 790.15 149.644C792.089 150.713 794.273 151.269 796.49 151.257H833.16C837.447 146.984 840.845 141.911 843.16 136.329C844.429 133.242 845.192 129.972 845.42 126.645L799.54 115.826C793.534 120.208 788.568 125.848 784.99 132.348Z" fill="#230545"/>
<path fill-rule="evenodd" clip-rule="evenodd" d="M847.38 145.275H800.86L793.71 169.659C793.316 170.996 793.242 172.407 793.492 173.778C793.742 175.149 794.31 176.443 795.151 177.557C795.992 178.671 797.082 179.574 798.335 180.195C799.588 180.817 800.97 181.138 802.37 181.135H837.66C838.739 181.125 839.778 180.73 840.588 180.021C841.397 179.312 841.923 178.337 842.07 177.273L847.38 145.275Z" fill="#230545"/>
<path fill-rule="evenodd" clip-rule="evenodd" d="M834.78 187.116H824.55C823.3 187.055 822.105 186.582 821.155 185.772C820.204 184.961 819.551 183.858 819.3 182.638L814.36 157.229H833.36L838.29 182.638C838.438 183.169 838.46 183.727 838.352 184.268C838.245 184.809 838.012 185.318 837.672 185.753C837.332 186.188 836.894 186.538 836.394 186.775C835.893 187.012 835.344 187.129 834.79 187.116H834.78Z" fill="#FFC680"/>
<path fill-rule="evenodd" clip-rule="evenodd" d="M808.35 128.834H826.35C829.533 128.834 832.585 130.092 834.835 132.332C837.086 134.572 838.35 137.61 838.35 140.777V157.209C838.35 162.752 836.137 168.068 832.199 171.988C828.261 175.907 822.92 178.109 817.35 178.109C811.78 178.109 806.439 175.907 802.501 171.988C798.562 168.068 796.35 162.752 796.35 157.209V140.847C796.341 139.273 796.644 137.712 797.243 136.255C797.842 134.798 798.725 133.473 799.84 132.357C800.955 131.24 802.281 130.354 803.742 129.75C805.202 129.145 806.768 128.834 808.35 128.834Z" fill="#FFC680"/>
<path fill-rule="evenodd" clip-rule="evenodd" d="M859 153.477L855.16 135.791C853.414 127.191 848.32 119.628 840.991 114.754C833.661 109.879 824.691 108.089 816.04 109.775L808.04 111.358L806.75 111.656C803.462 112.693 800.453 114.459 797.95 116.821C796.95 117.707 804.51 132.039 804.51 132.039C806.462 136.366 809.498 140.122 813.328 142.945C817.157 145.769 821.652 147.565 826.38 148.162C826.873 148.252 827.37 148.312 827.87 148.341H839.38L832.14 182.648C836.644 182.342 840.995 180.897 844.78 178.448L848.4 175.93C851.439 173.87 853.98 171.164 855.839 168.007C857.698 164.851 858.829 161.322 859.15 157.677C859.296 156.277 859.246 154.863 859 153.477Z" fill="#230545"/>
<path fill-rule="evenodd" clip-rule="evenodd" d="M826.36 148.162C826.856 148.252 827.357 148.312 827.86 148.341H837.11V144.529H831.61C831.18 144.529 830.61 144.42 830.12 144.36C825.384 143.774 820.881 141.983 817.045 139.158C813.208 136.334 810.169 132.572 808.22 128.237L807.49 126.744C805.981 127.568 804.577 128.57 803.31 129.73L804.46 132.059C806.413 136.389 809.454 140.146 813.29 142.966C817.126 145.787 821.627 147.576 826.36 148.162Z" fill="#544463"/>
<path d="M836.12 154.243C838.647 154.245 841.117 153.501 843.218 152.105C845.32 150.71 846.958 148.725 847.926 146.402C848.894 144.079 849.148 141.523 848.655 139.057C848.163 136.59 846.946 134.325 845.16 132.547C843.373 130.769 841.097 129.558 838.619 129.068C836.141 128.578 833.572 128.83 831.239 129.794C828.905 130.757 826.91 132.387 825.508 134.479C824.106 136.57 823.358 139.029 823.36 141.544C823.363 144.911 824.708 148.14 827.1 150.521C829.493 152.902 832.737 154.241 836.12 154.243Z" fill="#230545"/>
<path fill-rule="evenodd" clip-rule="evenodd" d="M807.01 167.719C806.875 167.721 806.742 167.76 806.626 167.83C806.51 167.899 806.415 167.999 806.35 168.117C806.286 168.235 806.253 168.366 806.253 168.5C806.253 168.634 806.286 168.766 806.35 168.883C807.037 169.899 807.965 170.732 809.051 171.307C810.137 171.883 811.349 172.184 812.58 172.184C813.811 172.184 815.022 171.883 816.109 171.307C817.195 170.732 818.123 169.899 818.81 168.883C818.879 168.767 818.915 168.635 818.915 168.5C818.915 168.365 818.879 168.233 818.81 168.117C818.746 168 818.652 167.902 818.538 167.832C818.424 167.762 818.294 167.723 818.16 167.719H807.01Z" fill="white"/>
<path d="M836.86 160.215C838.047 160.215 839.207 159.864 840.193 159.208C841.18 158.552 841.949 157.619 842.403 156.528C842.857 155.437 842.976 154.236 842.745 153.078C842.513 151.92 841.942 150.856 841.103 150.021C840.264 149.185 839.194 148.617 838.031 148.386C836.867 148.156 835.66 148.274 834.564 148.726C833.467 149.178 832.531 149.943 831.871 150.925C831.212 151.907 830.86 153.062 830.86 154.243C830.86 155.827 831.492 157.346 832.617 158.466C833.743 159.585 835.269 160.215 836.86 160.215Z" fill="#FFC680"/>
<path d="M836.86 157.229C837.453 157.229 838.033 157.054 838.527 156.726C839.02 156.398 839.405 155.932 839.632 155.386C839.859 154.841 839.918 154.24 839.802 153.661C839.687 153.082 839.401 152.55 838.981 152.132C838.562 151.715 838.027 151.43 837.445 151.315C836.863 151.2 836.26 151.259 835.712 151.485C835.164 151.711 834.695 152.094 834.366 152.585C834.036 153.076 833.86 153.653 833.86 154.244C833.86 155.035 834.176 155.795 834.739 156.355C835.301 156.915 836.064 157.229 836.86 157.229Z" fill="#FFB652"/>
<path fill-rule="evenodd" clip-rule="evenodd" d="M836.86 161.748C836.461 161.748 836.079 161.905 835.796 162.185C835.513 162.464 835.353 162.844 835.35 163.241V166.227C835.393 166.593 835.569 166.931 835.845 167.176C836.122 167.421 836.48 167.557 836.85 167.557C837.22 167.557 837.578 167.421 837.854 167.176C838.131 166.931 838.307 166.593 838.35 166.227V163.241C838.35 162.847 838.193 162.469 837.914 162.189C837.635 161.909 837.256 161.751 836.86 161.748Z" fill="white"/>
<path fill-rule="evenodd" clip-rule="evenodd" d="M836.86 160.215C836.46 160.217 836.078 160.377 835.795 160.658C835.513 160.939 835.353 161.32 835.35 161.718V164.703H838.35V161.718C838.35 161.323 838.194 160.943 837.915 160.662C837.636 160.381 837.257 160.22 836.86 160.215Z" fill="white"/>
<path fill-rule="evenodd" clip-rule="evenodd" d="M789.37 132.556L789.5 132.347C792.866 126.475 797.246 121.239 802.44 116.881C804.968 114.553 807.969 112.791 811.24 111.716L812.53 111.417L820.53 109.835C821.937 109.564 823.36 109.388 824.79 109.307C821.859 109.089 818.913 109.266 816.03 109.835L808.03 111.417L806.74 111.716C803.469 112.791 800.468 114.553 797.94 116.881C792.724 121.256 788.324 126.512 784.94 132.407L784.83 132.616C783.901 134.46 783.431 136.499 783.46 138.561C783.489 140.624 784.015 142.649 784.996 144.466C785.977 146.283 787.382 147.839 789.093 149.002C790.805 150.165 792.772 150.901 794.83 151.148V149.655C791.851 148.084 789.611 145.413 788.59 142.216C787.569 139.019 787.849 135.55 789.37 132.556Z" fill="#544463"/>
<path d="M799.34 149.805H793.34C793.143 149.806 792.948 149.846 792.767 149.922C792.585 149.998 792.421 150.109 792.282 150.249C792.144 150.389 792.034 150.554 791.96 150.735C791.886 150.917 791.849 151.111 791.85 151.308V154.293C791.849 154.489 791.886 154.683 791.96 154.864C792.035 155.045 792.144 155.21 792.283 155.348C792.421 155.487 792.586 155.597 792.767 155.672C792.949 155.748 793.143 155.786 793.34 155.786H799.34C799.738 155.786 800.119 155.629 800.401 155.349C800.682 155.069 800.84 154.689 800.84 154.293V151.308C800.84 150.911 800.682 150.53 800.401 150.248C800.12 149.967 799.739 149.807 799.34 149.805Z" fill="#FFC680"/>
<path d="M826.37 146.818H812.86C812.064 146.818 811.301 147.133 810.739 147.693C810.176 148.253 809.86 149.012 809.86 149.804V151.307C808.94 150.807 807.908 150.545 806.86 150.545C805.812 150.545 804.78 150.807 803.86 151.307V149.804C803.86 149.012 803.544 148.253 802.981 147.693C802.419 147.133 801.656 146.818 800.86 146.818H788.86C788.462 146.818 788.081 146.976 787.799 147.256C787.518 147.536 787.36 147.915 787.36 148.311V148.998C787.361 149.243 787.421 149.484 787.536 149.701C787.651 149.918 787.817 150.104 788.02 150.242C788.266 150.41 788.47 150.631 788.616 150.89C788.762 151.149 788.845 151.439 788.86 151.735V153.915C788.86 154.546 788.985 155.17 789.228 155.753C789.471 156.335 789.827 156.865 790.275 157.31C790.724 157.756 791.256 158.109 791.842 158.35C792.428 158.59 793.056 158.713 793.69 158.712H799.06C800.338 158.712 801.564 158.206 802.468 157.307C803.372 156.407 803.88 155.187 803.88 153.915C804.8 153.415 805.832 153.153 806.88 153.153C807.928 153.153 808.96 153.415 809.88 153.915C809.879 154.545 810.002 155.169 810.244 155.752C810.486 156.335 810.841 156.864 811.289 157.31C811.737 157.755 812.268 158.109 812.854 158.349C813.439 158.59 814.067 158.713 814.7 158.712H820.07C820.703 158.713 821.331 158.59 821.916 158.349C822.502 158.109 823.033 157.755 823.481 157.31C823.929 156.864 824.284 156.335 824.526 155.752C824.767 155.169 824.891 154.545 824.89 153.915V152.093C824.886 151.701 825.008 151.317 825.238 150.999C825.468 150.68 825.795 150.443 826.17 150.322L826.88 150.093C827.175 149.989 827.43 149.796 827.609 149.541C827.789 149.286 827.883 148.981 827.88 148.67V148.311C827.881 148.114 827.843 147.919 827.768 147.736C827.692 147.554 827.581 147.388 827.44 147.249C827.299 147.11 827.132 147 826.949 146.927C826.765 146.853 826.568 146.816 826.37 146.818ZM800.86 154.243C800.86 154.639 800.702 155.019 800.421 155.299C800.139 155.579 799.758 155.736 799.36 155.736H793.36C793.163 155.736 792.969 155.697 792.787 155.622C792.606 155.547 792.441 155.437 792.303 155.298C792.164 155.159 792.055 154.995 791.981 154.814C791.906 154.633 791.869 154.439 791.87 154.243V151.257C791.869 151.061 791.906 150.867 791.98 150.685C792.055 150.504 792.164 150.338 792.302 150.199C792.441 150.059 792.605 149.948 792.787 149.872C792.968 149.796 793.163 149.756 793.36 149.755H799.36C799.759 149.757 800.14 149.917 800.421 150.198C800.702 150.48 800.86 150.86 800.86 151.257V154.243ZM821.86 154.243C821.86 154.639 821.702 155.019 821.421 155.299C821.139 155.579 820.758 155.736 820.36 155.736H814.36C813.961 155.736 813.579 155.579 813.296 155.299C813.013 155.02 812.853 154.64 812.85 154.243V151.257C812.853 150.86 813.013 150.479 813.295 150.198C813.578 149.916 813.96 149.757 814.36 149.755H820.36C820.759 149.757 821.14 149.917 821.421 150.198C821.702 150.48 821.86 150.86 821.86 151.257V154.243Z" fill="#CC8729"/>
<path fill-rule="evenodd" clip-rule="evenodd" d="M815.11 152.791H815.86C816.258 152.791 816.639 152.948 816.921 153.228C817.202 153.508 817.36 153.888 817.36 154.284V155.03C817.357 155.229 817.276 155.419 817.134 155.559C816.992 155.699 816.8 155.777 816.6 155.777H815.11C814.911 155.777 814.72 155.698 814.58 155.558C814.439 155.418 814.36 155.228 814.36 155.03V153.538C814.359 153.439 814.377 153.341 814.414 153.25C814.451 153.159 814.507 153.076 814.577 153.007C814.647 152.937 814.73 152.882 814.821 152.845C814.913 152.808 815.011 152.79 815.11 152.791Z" fill="#230545"/>
<path fill-rule="evenodd" clip-rule="evenodd" d="M794.09 152.791H794.84C795.238 152.791 795.619 152.948 795.901 153.228C796.182 153.508 796.34 153.888 796.34 154.284V155.03C796.34 155.228 796.261 155.418 796.12 155.558C795.98 155.698 795.789 155.777 795.59 155.777H794.09C793.892 155.774 793.703 155.695 793.562 155.555C793.422 155.416 793.343 155.228 793.34 155.03V153.537C793.34 153.339 793.419 153.15 793.56 153.01C793.7 152.87 793.891 152.791 794.09 152.791Z" fill="#230545"/>
<path d="M949.82 45.3818H897.35V109.108H949.82V45.3818Z" fill="#F7F7F7"/>
<path d="M949.86 41.3213H895.37C894.84 41.3213 894.331 41.531 893.956 41.9043C893.581 42.2776 893.37 42.7839 893.37 43.3118V111.059C893.37 111.587 893.581 112.093 893.956 112.467C894.331 112.84 894.84 113.05 895.37 113.05H951.86C952.39 113.05 952.899 112.84 953.274 112.467C953.649 112.093 953.86 111.587 953.86 111.059V43.3715C953.86 42.8436 953.649 42.3373 953.274 41.964C952.899 41.5907 952.39 41.381 951.86 41.381L949.86 41.3213ZM949.86 109.069H897.39V45.372H949.86V109.069Z" fill="#DBDBDB"/>
<path d="M943.77 51.4131H903.41V103.087H943.77V51.4131Z" fill="#DBDBDB"/>
<path d="M936.71 78.9818C936.063 78.9836 935.442 79.2372 934.98 79.6884L927.71 86.924L916.41 75.6775C915.955 75.2215 915.336 74.9638 914.69 74.9609H914.51C913.861 74.9622 913.239 75.2199 912.78 75.6775L903.41 85.0032V103.087H943.77V85.0032L938.43 79.6884C937.971 79.2387 937.354 78.9852 936.71 78.9818Z" fill="#C7C7C7"/>
<path d="M929.64 71.4879C932.981 71.4879 935.69 68.7921 935.69 65.4666C935.69 62.1412 932.981 59.4453 929.64 59.4453C926.299 59.4453 923.59 62.1412 923.59 65.4666C923.59 68.7921 926.299 71.4879 929.64 71.4879Z" fill="#F7F7F7"/>
</svg>
