<svg xmlns="http://www.w3.org/2000/svg" width="921" height="509" fill="none" viewBox="0 0 921 509">
    <path fill="#F0F0F0" d="M582.711 43.62C629.766-9.42 700.237-1.94 737.355 4.537c138.15 24.04 183.33 149.513 183.643 259.082.156 49.752-7.741 105.258-31.909 148.003-38.823 68.767-76.004 97.01-177.518 97.01H163.219c-232.411 0-187.507-159.016-45.993-175.518 148.584-17.326 86.397-104.416 168.905-139.014 131.994-55.347 112.54 39.735 206.922-28.63 45.408-32.836 39.04-64.791 89.658-121.848z"/>
    <path fill="#F7F7F7" d="M213.32 469.149h317.556l-109.218-311.79h-96.66L213.32 469.149z"/>
    <path fill="#DBDBDB" d="M377.265 152.449h-7.405v309.329h7.405V152.449z"/>
    <path fill="#C7C7C7" d="M403.606 459.331h-60.413a4.942 4.942 0 0 0-3.488 1.438 4.896 4.896 0 0 0-1.445 3.471v4.909h70.279v-4.909c0-1.302-.52-2.551-1.445-3.471a4.942 4.942 0 0 0-3.488-1.438z"/>
    <path fill="#FFECA1" d="M426.59 147.54H320.521l19.041-74.648a19.652 19.652 0 0 1 7.153-9.928 19.806 19.806 0 0 1 11.666-3.802h30.272c4.196 0 8.283 1.33 11.667 3.8a19.641 19.641 0 0 1 7.152 9.93l19.118 74.648z"/>
    <path fill="#F0D37F" d="M407.511 72.892a19.641 19.641 0 0 0-7.152-9.93 19.791 19.791 0 0 0-11.667-3.8h-24.286c4.197 0 8.284 1.33 11.668 3.8a19.647 19.647 0 0 1 7.152 9.93l18.702 74.648h24.727l-19.144-74.648zM320.521 147.54H426.59v7.28c0 .687-.274 1.346-.762 1.831a2.608 2.608 0 0 1-1.841.759H323.124c-.69 0-1.352-.273-1.84-.759a2.578 2.578 0 0 1-.763-1.831V147.54zM300.934 375.018h5.622a6.29 6.29 0 0 1 4.436 1.828 6.227 6.227 0 0 1 1.838 4.415v7.241a6.22 6.22 0 0 1-1.838 4.415 6.285 6.285 0 0 1-4.436 1.828h-5.622v-19.727z"/>
    <path fill="#F0D37F" d="M296.965 369.127v23.665a7.869 7.869 0 0 1-2.322 5.578 7.945 7.945 0 0 1-5.604 2.31h7.926a7.94 7.94 0 0 0 5.608-2.307 7.864 7.864 0 0 0 2.318-5.581v-23.665h-7.926z"/>
    <path fill="#FFECA1" d="M296.965 392.792v-23.665h-23.778v23.665a7.857 7.857 0 0 0 2.321 5.578 7.945 7.945 0 0 0 5.605 2.31h7.926a7.945 7.945 0 0 0 5.604-2.31 7.869 7.869 0 0 0 2.322-5.578z"/>
    <path fill="#C7C7C7" d="M322.643 409.707H177.165v7.888h145.478v-7.888z"/>
    <path fill="#DBDBDB" d="M185.091 471.609h-7.926v-70.93h14.746l-6.82 70.93z"/>
    <path fill="#C7C7C7" d="M209.923 471.609h7.926v-70.93h-16.073l8.147 70.93z"/>
    <path fill="#DBDBDB" d="M289.911 471.609h-7.926v-70.93h15.995l-8.069 70.93z"/>
    <path fill="#C7C7C7" d="M314.717 471.609h7.925v-70.93h-14.797l6.872 70.93z"/>
    <path fill="#DBDBDB" d="M322.643 400.407H177.165v9.819h145.478v-9.819z"/>
    <path fill="#fff" fill-rule="evenodd" d="M334.056 303.208l-.585-2.189a11.657 11.657 0 0 0-4.161-6.265 11.754 11.754 0 0 0-7.136-2.44h-.338c-6.807.195-10.607 7.176-7.367 13.653a9.103 9.103 0 0 1 .803 6.439 9.148 9.148 0 0 1-3.692 5.348l-12.064 8.044a17.134 17.134 0 0 0-5.33 5.777 17.054 17.054 0 0 0-2.18 7.538c-.14 3.593.649 7.16 2.291 10.363l1.548 3.173c1.12 2.319 4.165 1.671 4.543-.971l.689-4.961a16.801 16.801 0 0 1 4.716-10.673 16.95 16.95 0 0 1 10.55-5.065c10.477-1.127 18.403-9.391 18.65-20.725a25.27 25.27 0 0 0-.937-7.046z" clip-rule="evenodd"/>
    <path fill="#E3E3E3" d="M745.982 469.148H152.958c-19.86 0-35.946 2.746-35.946 6.14 0 3.394 16.086 6.14 35.946 6.14h593.024c19.847 0 35.946-2.746 35.946-6.14 0-3.394-16.099-6.14-35.946-6.14z"/>
    <path fill="#230545" fill-rule="evenodd" d="M709.346 475.626h4.672l-11.44-42.745h-21.877l28.645 42.745zM574.801 430.887h17.986l-29.934 44.739h-5.089l12-44.739h5.037z" clip-rule="evenodd"/>
    <path fill="#CC8729" fill-rule="evenodd" d="M443.743 336.886l161.317-43.107c12.91-3.2 22.02-10.453 29.413-19.598a56.874 56.874 0 0 0 4.321-6.101 55.897 55.897 0 0 0 8.016-17.979l13.236-49.13c.229-.954.529-1.889.898-2.798.042-.166.103-.327.183-.479a22.89 22.89 0 0 1 1.301-2.591l.117-.168a23.341 23.341 0 0 1 6.121-6.948 23.451 23.451 0 0 1 8.352-4.036 23.098 23.098 0 0 1 5.869-.829h8.824c2.672.001 5.308.609 7.71 1.776a17.573 17.573 0 0 1 6.147 4.958 17.468 17.468 0 0 1 3.343 7.139 17.426 17.426 0 0 1-.138 7.875l-48.766 193.219a58.259 58.259 0 0 1-20.74 32.055 58.749 58.749 0 0 1-36.212 12.438H446.88a11.738 11.738 0 0 1-8.282-3.415 11.627 11.627 0 0 1-3.431-8.243v-82.782a11.624 11.624 0 0 1 2.38-7.068 11.709 11.709 0 0 1 6.196-4.188z" clip-rule="evenodd"/>
    <path fill="#FFB652" fill-rule="evenodd" d="M420.486 338.247l161.147-42.551c15.26-3.885 28.475-13.377 36.988-26.566a36.704 36.704 0 0 0 4.75-10.272l16.073-58.081a23.307 23.307 0 0 1 8.319-12.745 23.503 23.503 0 0 1 14.444-4.936h26.628c-1.98.023-3.949.301-5.857.829a23.46 23.46 0 0 0-10.828 6.195 23.288 23.288 0 0 0-6.091 10.851l-17.518 58.664a40.249 40.249 0 0 1-8.069 14.546c-7.405 9.145-16.502 16.399-29.426 19.598l-161.329 43.108a11.712 11.712 0 0 0-6.259 4.162 11.618 11.618 0 0 0-2.422 7.094v82.743c0 3.092 1.234 6.057 3.431 8.243a11.744 11.744 0 0 0 8.283 3.415h-22.086a19.07 19.07 0 0 1-13.477-5.551 18.948 18.948 0 0 1-4.13-6.154 18.882 18.882 0 0 1-1.447-7.259v-74.025a11.63 11.63 0 0 1 2.483-7.175 11.713 11.713 0 0 1 6.393-4.133z" clip-rule="evenodd"/>
    <path fill="#FFB652" fill-rule="evenodd" d="M766.35 189.923h-73.793a23.495 23.495 0 0 0-14.42 4.947 23.304 23.304 0 0 0-8.304 12.734l-48.154 186.341h114.295l47.165-182.287c.638-2.555.689-5.221.149-7.798a17.469 17.469 0 0 0-3.267-7.09 17.589 17.589 0 0 0-6.037-4.975 17.67 17.67 0 0 0-7.608-1.872h-.026z" clip-rule="evenodd"/>
    <path fill="#CC8729" fill-rule="evenodd" d="M793.251 210.776l-47.386 183.167H589.924l17.817-71.098 60.752-15.116 1.08-.298a48.618 48.618 0 0 0 15.617-7.461c11.896-8.653 22.841-21.709 26.147-34.895l16.216-58.444a23.31 23.31 0 0 1 8.298-12.729 23.499 23.499 0 0 1 14.413-4.952h22.892v.324a25.142 25.142 0 0 1 3.41-.311c2.648.058 5.248.709 7.608 1.905a17.585 17.585 0 0 1 6.021 5.005 17.48 17.48 0 0 1 3.24 7.111 17.45 17.45 0 0 1-.184 7.805v-.013z" clip-rule="evenodd"/>
    <path fill="#CC8729" d="M441.817 434.786h105.679a16.577 16.577 0 0 0 11.684-4.822 16.42 16.42 0 0 0 4.844-11.628v-27.395a16.423 16.423 0 0 0-4.844-11.629 16.585 16.585 0 0 0-11.684-4.822H441.817a16.575 16.575 0 0 0-11.679 4.823 16.411 16.411 0 0 0-4.836 11.628v27.395c0 4.361 1.739 8.543 4.836 11.628a16.57 16.57 0 0 0 11.679 4.822z"/>
    <path fill="#FFB652" fill-rule="evenodd" d="M440.919 370.603a11.743 11.743 0 0 0-8.282 3.415 11.627 11.627 0 0 0-3.431 8.243v34.973c0 3.092 1.234 6.057 3.431 8.243a11.743 11.743 0 0 0 8.282 3.414h95.736v-58.288h-95.736z" clip-rule="evenodd"/>
    <path fill="#CC8729" fill-rule="evenodd" d="M478.05 428.942h9.774l23.426-58.288h-9.774l-23.426 58.288zM558.207 428.942h-29.361l5.857-58.288h23.426l.078 58.288zM663.066 237.641a27.42 27.42 0 0 1 9.87 4.058 27.3 27.3 0 0 1 7.554 7.513 27.12 27.12 0 0 1 4.084 9.82c.7 3.509.697 7.121-.008 10.629l-11.83 59.13a13.598 13.598 0 0 1-2.043 4.908 13.648 13.648 0 0 1-3.774 3.757 13.73 13.73 0 0 1-10.27 2.034 13.725 13.725 0 0 1-4.931-2.033 13.648 13.648 0 0 1-3.775-3.756 13.58 13.58 0 0 1-2.044-10.221l17.167-85.839z" clip-rule="evenodd"/>
    <path fill="#5A9C4B" d="M632.781 288.456a13.6 13.6 0 0 0 6.037-8.682 13.547 13.547 0 0 0-2.015-10.367 13.692 13.692 0 0 0-8.855-5.814 13.73 13.73 0 0 0-10.368 2.234l-61.742 41.048a13.648 13.648 0 0 0-3.774 3.757 13.568 13.568 0 0 0 0 15.128 13.638 13.638 0 0 0 3.775 3.757 13.718 13.718 0 0 0 10.269 2.033 13.718 13.718 0 0 0 4.931-2.033l61.742-41.061z"/>
    <path fill="#5A9C4B" fill-rule="evenodd" d="M651.3 228.652h-30.948c-3.104 0-6.177.618-9.038 1.817a23.313 23.313 0 0 0-7.621 5.164 23.668 23.668 0 0 1 7.21-4.922v7.876l-11.453 14.248a11.628 11.628 0 0 0-2.513 5.31c-.369 1.954-.23 3.97.405 5.855l4.126 11.658-10.1 50.231h54.662l16.723-83.274a11.615 11.615 0 0 0-2.42-9.693 11.714 11.714 0 0 0-4.053-3.151 11.761 11.761 0 0 0-5.019-1.119h.039z" clip-rule="evenodd"/>
    <path fill="#6FBF5C" fill-rule="evenodd" d="M597.342 263.976a11.605 11.605 0 0 1 2.121-11.165l11.44-14.249v-7.875a23.836 23.836 0 0 0-7.21 4.922l-.182.169a20.003 20.003 0 0 0-1.965 2.24l-11.896 14.78a9.372 9.372 0 0 0-.898 1.295 9.641 9.641 0 0 0-.703 1.295 11.497 11.497 0 0 0-.507 8.64l4.126 11.658-10.035 50.192h9.774l10.1-50.257-4.165-11.645z" clip-rule="evenodd"/>
    <path fill="#5A9C4B" d="M620.677 331.707a15.67 15.67 0 0 0 8.677-2.62 15.56 15.56 0 0 0 5.752-6.975 15.483 15.483 0 0 0-3.386-16.94 15.64 15.64 0 0 0-7.996-4.253c-3.03-.6-6.17-.292-9.023.884a15.598 15.598 0 0 0-7.009 5.725 15.49 15.49 0 0 0-2.632 8.635c0 4.123 1.645 8.076 4.574 10.991a15.655 15.655 0 0 0 11.043 4.553z"/>
    <path fill="#230545" fill-rule="evenodd" d="M624.829 370.602l18.663-46.63h-1.991l-3.905 9.714H500.071a13.42 13.42 0 0 0-6.777 2.443 13.33 13.33 0 0 0-4.52 5.588l-43.417 108.662h24.871l32.394-79.738 122.207-.039z" clip-rule="evenodd"/>
    <path fill="#544463" fill-rule="evenodd" d="M505.654 323.935h-1.952c-9.774 0-20.706 7.771-24.585 17.499l-44.054 108.908h10.294l43.417-108.662a13.33 13.33 0 0 1 4.52-5.588 13.42 13.42 0 0 1 6.777-2.443h137.525l3.905-9.714H505.654z" clip-rule="evenodd"/>
    <path fill="#9C452D" fill-rule="evenodd" d="M401.251 473.682h67.676c.345 0 .676-.136.92-.379s.381-.572.381-.916v-22.02h-35.139l-20.824 9.236c-8.238 3.691-13.691 4.559-14.238 12.706a1.295 1.295 0 0 0 1.224 1.373z" clip-rule="evenodd"/>
    <path fill="#E37151" fill-rule="evenodd" d="M439.956 473.683h75.485a1.294 1.294 0 0 0 1.301-1.295v-22.02l-32.718-3.782-31.092 12.953c-8.238 3.691-13.692 4.559-14.238 12.706-.02.179-.002.359.051.531a1.307 1.307 0 0 0 1.211.907z" clip-rule="evenodd"/>
    <path fill="#230545" fill-rule="evenodd" d="M554.173 341.432l-68.848 103.184a1.952 1.952 0 0 0 .885 2.888l5.857 2.448 24.728 10.285 68.743-102.743a17.449 17.449 0 0 0 1.744-16.062h-33.109z" clip-rule="evenodd"/>
    <path fill="#544463" fill-rule="evenodd" d="M577.208 333.648h4.165l-.547-.428a17.648 17.648 0 0 0-19.55-.002 17.553 17.553 0 0 0-4.852 4.834l-72.4 108.532 8.147 3.368 72.101-108.015c3.045-4.481 7.08-8.289 12.936-8.289z" clip-rule="evenodd"/>
    <path fill="#FFC680" fill-rule="evenodd" d="M585.538 320.037c0-7.526-8.759-13.614-19.522-13.614-10.763 0-19.522 6.088-19.522 13.614h39.044z" clip-rule="evenodd"/>
    <path fill="#6FBF5C" fill-rule="evenodd" d="M645.405 315.84l14.199-70.697a13.283 13.283 0 0 1 2.901-5.909 13.374 13.374 0 0 1 5.389-3.806 11.956 11.956 0 0 0-2.29-.687 13.512 13.512 0 0 0-10.034 1.991 13.392 13.392 0 0 0-5.727 8.436l-14.212 70.698a13.253 13.253 0 0 0 .529 7.015 13.317 13.317 0 0 0 4.047 5.768 13.409 13.409 0 0 0 6.435 2.911c2.368.378 4.795.116 7.027-.76a13.375 13.375 0 0 1-6.855-5.99 13.27 13.27 0 0 1-1.409-8.97z" clip-rule="evenodd"/>
    <path fill="#5A9C4B" fill-rule="evenodd" d="M661.908 321.032l14.185-70.697a9.209 9.209 0 0 0 1.591-8.443 9.225 9.225 0 0 0-2.286-3.795 9.293 9.293 0 0 0-3.797-2.3 9.32 9.32 0 0 0-8.495 1.528 9.252 9.252 0 0 0-2.747 3.478 9.203 9.203 0 0 0-.807 4.351l-14.147 70.658a9.21 9.21 0 0 0-1.604 8.461 9.237 9.237 0 0 0 2.29 3.804 9.293 9.293 0 0 0 3.806 2.306 9.333 9.333 0 0 0 8.512-1.538 9.248 9.248 0 0 0 2.749-3.489 9.211 9.211 0 0 0 .802-4.363l-.052.039z" clip-rule="evenodd"/>
    <path fill="#FFC680" fill-rule="evenodd" d="M628.486 320.037c0-7.526-8.746-13.614-19.522-13.614-10.776 0-19.522 6.088-19.522 13.614h39.044z" clip-rule="evenodd"/>
    <path fill="#E5E5E5" fill-rule="evenodd" d="M551.309 257.809h-60.231a3.914 3.914 0 0 0-3.124 1.555 3.878 3.878 0 0 0-.625 3.419l17.245 58.289a3.89 3.89 0 0 0 1.407 2.032c.679.507 1.505.78 2.354.778h60.284a3.917 3.917 0 0 0 3.854-3.203 3.86 3.86 0 0 0-.093-1.784l-17.257-58.288a3.89 3.89 0 0 0-1.432-2.04 3.916 3.916 0 0 0-2.382-.758z" clip-rule="evenodd"/>
    <path fill="#E5E5E5" fill-rule="evenodd" d="M558.207 316.151h50.757c.518 0 1.014.204 1.38.569.367.364.572.858.572 1.374v3.886a1.954 1.954 0 0 1-1.952 1.943h-50.757v-7.772z" clip-rule="evenodd"/>
    <path fill="#CC8729" fill-rule="evenodd" d="M578.549 336.886l122.233-43.107c12.911-3.2 22.021-10.453 29.413-19.598a56.874 56.874 0 0 0 4.321-6.101 56.154 56.154 0 0 0 8.004-17.979l13.249-49.13c.23-.952.525-1.887.885-2.798.051-.165.117-.325.195-.479.352-.891.765-1.756 1.236-2.591l.118-.168a23.352 23.352 0 0 1 6.12-6.948 23.46 23.46 0 0 1 8.352-4.036 23.1 23.1 0 0 1 5.87-.829h8.823c2.672.001 5.309.609 7.71 1.776a17.585 17.585 0 0 1 6.148 4.958 17.48 17.48 0 0 1 3.343 7.139 17.426 17.426 0 0 1-.139 7.875l-48.765 193.219a58.263 58.263 0 0 1-20.727 32.023 58.74 58.74 0 0 1-36.173 12.444H581.633a11.743 11.743 0 0 1-8.282-3.414 11.631 11.631 0 0 1-3.431-8.244v-82.756a11.624 11.624 0 0 1 2.401-7.081 11.717 11.717 0 0 1 6.228-4.175z" clip-rule="evenodd"/>
    <path fill="#FFB652" fill-rule="evenodd" d="M757.903 183.096a23.5 23.5 0 0 0-14.404 4.955 23.31 23.31 0 0 0-8.293 12.726l-16.073 58.081a37.5 37.5 0 0 1-4.751 10.272c-8.368 13.264-22.125 21.502-36.987 26.566l-122.051 42.551a11.71 11.71 0 0 0-6.393 4.133 11.615 11.615 0 0 0-2.483 7.175v74.038c0 2.492.493 4.959 1.451 7.26a18.96 18.96 0 0 0 4.134 6.154 19.064 19.064 0 0 0 6.186 4.11 19.148 19.148 0 0 0 7.295 1.44h28.841a19.15 19.15 0 0 1-7.296-1.44 19.064 19.064 0 0 1-6.186-4.11 18.957 18.957 0 0 1-4.133-6.154 18.87 18.87 0 0 1-1.452-7.26v-75.45a12.035 12.035 0 0 1 2.676-7.135 12.13 12.13 0 0 1 6.434-4.121l122.221-43.108c12.611-4.248 22.02-10.453 29.426-19.598a39.888 39.888 0 0 0 8.069-14.546l17.517-58.664a23.296 23.296 0 0 1 6.091-10.851 23.46 23.46 0 0 1 10.828-6.195 23.006 23.006 0 0 1 5.857-.829h-26.524z" clip-rule="evenodd"/>
    <path fill="#fff" fill-rule="evenodd" d="M545.453 257.81h-66.739a1.96 1.96 0 0 0-1.617.746 1.93 1.93 0 0 0-.335 1.741l17.973 60.879a3.877 3.877 0 0 0 1.433 2.052 3.915 3.915 0 0 0 2.393.759h69.368l-18.728-63.327a3.885 3.885 0 0 0-1.393-2.052 3.926 3.926 0 0 0-2.355-.798z" clip-rule="evenodd"/>
    <path fill="#E5E5E5" fill-rule="evenodd" d="M522.651 285.038h-4.36a3.905 3.905 0 0 0-3.117 1.551 3.879 3.879 0 0 0-.631 3.41l1.119 3.886a3.885 3.885 0 0 0 1.399 2.036c.677.51 1.501.786 2.349.788h4.347a3.926 3.926 0 0 0 1.746-.406 3.89 3.89 0 0 0 2.103-2.773c.11-.593.08-1.203-.087-1.782l-1.12-3.886a3.885 3.885 0 0 0-1.399-2.036 3.916 3.916 0 0 0-2.349-.788z" clip-rule="evenodd"/>
    <path fill="#230545" fill-rule="evenodd" d="M576.597 163.188l-.144.272a16.7 16.7 0 0 0 .695 16.388 16.811 16.811 0 0 0 6.164 5.85 16.896 16.896 0 0 0 8.251 2.1h47.725a59.743 59.743 0 0 0 13.015-19.429 40.371 40.371 0 0 0 2.941-12.603l-59.711-14.08a66.047 66.047 0 0 0-18.936 21.502z" clip-rule="evenodd"/>
    <path fill="#230545" fill-rule="evenodd" d="M657.795 180.014h-60.544l-9.306 31.735a11.614 11.614 0 0 0 1.876 10.278 11.693 11.693 0 0 0 4.144 3.434 11.745 11.745 0 0 0 5.251 1.222h45.929a5.855 5.855 0 0 0 3.81-1.449 5.808 5.808 0 0 0 1.929-3.576l6.911-41.644z" clip-rule="evenodd"/>
    <path fill="#FFC680" fill-rule="evenodd" d="M641.396 234.468h-13.314a7.361 7.361 0 0 1-4.419-1.75 7.294 7.294 0 0 1-2.413-4.079l-6.429-33.069h24.727l6.417 33.069a4.59 4.59 0 0 1-2.469 5.385 4.64 4.64 0 0 1-2.087.444h-.013z" clip-rule="evenodd"/>
    <path fill="#FFC680" fill-rule="evenodd" d="M606.999 158.615h23.426c4.142 0 8.115 1.638 11.043 4.553a15.507 15.507 0 0 1 4.575 10.991v21.385c0 7.214-2.88 14.133-8.005 19.234a27.396 27.396 0 0 1-19.326 7.967c-7.249 0-14.2-2.865-19.326-7.967a27.138 27.138 0 0 1-8.005-19.234V174.25a15.468 15.468 0 0 1 1.163-5.976 15.531 15.531 0 0 1 3.379-5.074 15.63 15.63 0 0 1 5.078-3.393 15.68 15.68 0 0 1 5.998-1.192z" clip-rule="evenodd"/>
    <path fill="#230545" fill-rule="evenodd" d="M672.918 190.687l-4.998-23.017a43.209 43.209 0 0 0-18.441-27.379 43.596 43.596 0 0 0-32.472-6.48l-10.412 2.059-1.679.389a29.68 29.68 0 0 0-11.452 6.722c-1.302 1.153 8.537 19.805 8.537 19.805a36.06 36.06 0 0 0 11.476 14.195 36.294 36.294 0 0 0 16.987 6.789c.641.117 1.289.195 1.939.233h14.98l-9.422 44.649a34.602 34.602 0 0 0 16.45-5.466l4.711-3.277a32.198 32.198 0 0 0 9.681-10.311 32.027 32.027 0 0 0 4.31-13.445c.19-1.822.124-3.662-.195-5.466z" clip-rule="evenodd"/>
    <path fill="#544463" fill-rule="evenodd" d="M630.438 183.769c.646.117 1.297.195 1.952.233h12.039v-4.961h-7.158c-.56 0-1.302-.142-1.939-.22a36.198 36.198 0 0 1-17.018-6.77 35.964 35.964 0 0 1-11.484-14.214l-.95-1.943a27.806 27.806 0 0 0-5.441 3.886l1.497 3.031a35.995 35.995 0 0 0 11.492 14.196 36.221 36.221 0 0 0 17.01 6.762z" clip-rule="evenodd"/>
    <path fill="#230545" d="M643.14 191.684a16.678 16.678 0 0 0 9.239-2.783 16.549 16.549 0 0 0 6.126-7.422c1.26-3.023 1.59-6.35.949-9.56a16.516 16.516 0 0 0-4.549-8.473 16.642 16.642 0 0 0-8.513-4.527 16.696 16.696 0 0 0-9.605.944 16.608 16.608 0 0 0-7.458 6.098 16.483 16.483 0 0 0 2.072 20.878 16.663 16.663 0 0 0 11.739 4.845z"/>
    <path fill="#fff" fill-rule="evenodd" d="M605.255 209.222a1.007 1.007 0 0 0-.986 1.017c0 .174.044.345.127.499a9.753 9.753 0 0 0 3.515 3.154 9.813 9.813 0 0 0 9.186 0 9.761 9.761 0 0 0 3.515-3.154.987.987 0 0 0 0-.998 1 1 0 0 0-.846-.518h-14.511z" clip-rule="evenodd"/>
    <path fill="#FFC680" d="M644.103 199.456a7.835 7.835 0 0 0 4.339-1.309 7.782 7.782 0 0 0 2.876-3.488 7.734 7.734 0 0 0 .444-4.491 7.76 7.76 0 0 0-2.137-3.979 7.819 7.819 0 0 0-3.998-2.127 7.845 7.845 0 0 0-4.512.442 7.805 7.805 0 0 0-3.504 2.863 7.747 7.747 0 0 0 .971 9.813 7.823 7.823 0 0 0 5.521 2.276z"/>
    <path fill="#FFB652" d="M644.103 195.57c.773 0 1.528-.228 2.17-.655a3.878 3.878 0 0 0 .591-5.979 3.923 3.923 0 0 0-4.255-.842 3.901 3.901 0 0 0-1.752 1.431 3.872 3.872 0 0 0 .486 4.907 3.915 3.915 0 0 0 2.76 1.138z"/>
    <path fill="#fff" fill-rule="evenodd" d="M644.103 201.452c-.519 0-1.016.204-1.385.568a1.954 1.954 0 0 0-.58 1.375v3.886c.056.476.285.916.645 1.235a1.971 1.971 0 0 0 2.615 0c.36-.319.589-.759.645-1.235v-3.886c0-.513-.204-1.006-.568-1.37a1.953 1.953 0 0 0-1.372-.573z" clip-rule="evenodd"/>
    <path fill="#fff" fill-rule="evenodd" d="M644.103 199.455a1.983 1.983 0 0 0-1.385.577 1.967 1.967 0 0 0-.58 1.379v3.886h3.905v-3.886c0-.514-.204-1.008-.567-1.374a1.97 1.97 0 0 0-1.373-.582z" clip-rule="evenodd"/>
    <path fill="#544463" fill-rule="evenodd" d="M582.297 163.459l.169-.272a74.916 74.916 0 0 1 16.841-20.129 31.381 31.381 0 0 1 11.453-6.722l1.679-.389 10.412-2.059a41.814 41.814 0 0 1 5.544-.687 42.58 42.58 0 0 0-11.401.687l-10.412 2.059-1.679.389a31.377 31.377 0 0 0-11.452 6.722 75.3 75.3 0 0 0-16.919 20.207l-.144.272a16.667 16.667 0 0 0 .216 15.422 16.78 16.78 0 0 0 5.333 5.903 16.863 16.863 0 0 0 7.466 2.793v-1.943a16.684 16.684 0 0 1-8.121-9.681 16.597 16.597 0 0 1 1.015-12.572z" clip-rule="evenodd"/>
    <path fill="#FFC680" d="M595.273 185.907h-7.809a1.966 1.966 0 0 0-1.377.578 1.952 1.952 0 0 0-.562 1.378v3.886a1.93 1.93 0 0 0 .563 1.373 1.937 1.937 0 0 0 1.376.57h7.809c.517 0 1.014-.205 1.38-.569a1.94 1.94 0 0 0 .572-1.374v-3.886a1.95 1.95 0 0 0-.571-1.378 1.97 1.97 0 0 0-1.381-.578z"/>
    <path fill="#CC8729" d="M630.451 182.022h-17.583c-1.035 0-2.028.41-2.76 1.138a3.876 3.876 0 0 0-1.144 2.748v1.956a8.176 8.176 0 0 0-7.809 0v-1.956c0-1.03-.411-2.019-1.143-2.748a3.92 3.92 0 0 0-2.761-1.138h-15.618c-.517 0-1.014.205-1.38.569a1.94 1.94 0 0 0-.572 1.374v.894a1.96 1.96 0 0 0 .859 1.619 2.509 2.509 0 0 1 1.093 1.943v2.837a6.217 6.217 0 0 0 1.842 4.419 6.288 6.288 0 0 0 4.444 1.824h6.989c1.664 0 3.26-.658 4.436-1.829a6.226 6.226 0 0 0 1.837-4.414 8.177 8.177 0 0 1 7.809 0c-.002.82.159 1.633.474 2.391a6.257 6.257 0 0 0 5.799 3.852h6.989a6.287 6.287 0 0 0 4.439-1.825 6.234 6.234 0 0 0 1.36-2.027 6.192 6.192 0 0 0 .474-2.391v-2.371a2.384 2.384 0 0 1 .453-1.425 2.406 2.406 0 0 1 1.213-.88l.924-.298a1.95 1.95 0 0 0 1.301-1.853v-.466a1.918 1.918 0 0 0-.572-1.382 1.938 1.938 0 0 0-1.393-.561zm-33.2 9.663a1.94 1.94 0 0 1-.572 1.374 1.959 1.959 0 0 1-1.38.569h-7.809a1.941 1.941 0 0 1-1.795-1.2 1.913 1.913 0 0 1-.144-.743v-3.886a1.935 1.935 0 0 1 1.193-1.803 1.97 1.97 0 0 1 .746-.153h7.809a1.97 1.97 0 0 1 1.381.578c.366.366.571.862.571 1.378v3.886zm27.33 0c0 .515-.205 1.01-.571 1.374a1.96 1.96 0 0 1-1.381.569h-7.808a1.97 1.97 0 0 1-1.385-.568 1.95 1.95 0 0 1-.581-1.375v-3.886a1.967 1.967 0 0 1 .58-1.379 1.985 1.985 0 0 1 1.386-.577h7.808a1.973 1.973 0 0 1 1.382.578c.365.366.571.862.57 1.378v3.886z"/>
    <path fill="#230545" fill-rule="evenodd" d="M615.797 189.794h.976c.517 0 1.014.205 1.38.569.366.365.572.859.572 1.374v.972a.986.986 0 0 1-.989.971h-1.939a.97.97 0 0 1-.977-.971v-1.943a.967.967 0 0 1 .977-.972zM588.44 189.794h.976c.518 0 1.014.205 1.38.569.367.365.572.859.572 1.374v.972a.972.972 0 0 1-.976.971h-1.952a.983.983 0 0 1-.976-.971v-1.943a.979.979 0 0 1 .976-.972z" clip-rule="evenodd"/>
    <path fill="#F7F7F7" d="M788.183 50.005h-68.287v82.938h68.287V50.005z"/>
    <path fill="#DBDBDB" d="M788.235 44.721h-70.916a2.61 2.61 0 0 0-1.841.759 2.585 2.585 0 0 0-.762 1.832v88.17c0 .688.274 1.346.762 1.832a2.61 2.61 0 0 0 1.841.759h73.519c.691 0 1.353-.273 1.841-.759a2.584 2.584 0 0 0 .762-1.832V47.39c0-.688-.274-1.346-.762-1.832a2.609 2.609 0 0 0-1.841-.759l-2.603-.078zm0 88.171h-68.287V49.993h68.287v82.899z"/>
    <path fill="#DBDBDB" d="M780.31 57.855h-52.527v67.252h52.527V57.855z"/>
    <path fill="#C7C7C7" d="M771.121 93.736a3.235 3.235 0 0 0-2.251.92l-9.462 9.416-14.706-14.636a3.184 3.184 0 0 0-2.239-.933h-.234a3.198 3.198 0 0 0-2.252.933l-12.194 12.137v23.535h52.527v-23.535l-6.95-6.917a3.225 3.225 0 0 0-2.239-.92z"/>
    <path fill="#F7F7F7" d="M761.92 83.98c4.349 0 7.874-3.508 7.874-7.836s-3.525-7.836-7.874-7.836-7.874 3.508-7.874 7.836 3.525 7.837 7.874 7.837z"/>
</svg>
