<svg width="921" height="509" viewBox="0 0 921 509" fill="none" xmlns="http://www.w3.org/2000/svg">
<path d="M582.653 43.6163C629.703 -9.41986 700.167 -1.94025 737.281 4.53557C875.417 28.5738 920.594 154.033 920.906 263.591C921.062 313.339 913.166 368.84 889 411.58C850.181 480.34 813.004 508.58 711.5 508.58H163.203C-69.1856 508.58 -24.2859 349.58 117.214 333.08C265.784 315.756 203.602 228.674 286.102 194.08C418.083 138.738 398.631 233.811 493.004 165.452C538.407 132.62 532.04 100.668 582.653 43.6163Z" fill="#262626"/>
<path fill-rule="evenodd" clip-rule="evenodd" d="M316.954 176.689C316.93 176.686 316.907 176.683 316.883 176.679L212.188 469.077L529.629 469.103L430.774 186.73C430.759 186.731 430.745 186.731 430.731 186.732L420.433 157.977H323.842L316.954 176.689Z" fill="#313130"/>
<path d="M376.105 157.977H368.704V461.746H376.105V157.977Z" fill="#8A8A8A"/>
<path fill-rule="evenodd" clip-rule="evenodd" d="M402.431 459.287H342.052C340.745 459.287 339.491 459.804 338.566 460.725C337.642 461.645 337.122 462.894 337.122 464.196V469.105H407.361V464.196C407.361 462.894 406.842 461.645 405.917 460.725C404.993 459.804 403.739 459.287 402.431 459.287V459.287Z" fill="#8A8A8A"/>
<path d="M425.402 148.161H319.393L338.462 73.5069C339.728 69.5279 342.233 66.0535 345.614 63.5874C348.996 61.1213 353.079 59.7916 357.27 59.791H387.538C391.729 59.7903 395.81 61.1197 399.19 63.5862C402.57 66.0527 405.072 69.5278 406.333 73.5069L425.402 148.161Z" fill="#F0D37F"/>
<path d="M411.237 150.206H333.558L347.528 95.4978C348.455 92.5806 350.291 90.0334 352.77 88.226C355.25 86.4187 358.243 85.4453 361.316 85.4473H383.428C386.499 85.4481 389.489 86.4227 391.966 88.2299C394.442 90.037 396.277 92.5827 397.202 95.4978L411.237 150.206Z" fill="#FFECA1"/>
<path d="M372.398 132.075C370.559 132.072 368.744 131.651 367.093 130.845C365.442 130.039 363.997 128.868 362.868 127.422C361.739 125.976 360.956 124.292 360.579 122.5C360.202 120.707 360.24 118.853 360.691 117.077L362.461 110.2C362.828 109.033 363.56 108.014 364.549 107.289C365.539 106.565 366.734 106.174 367.963 106.172H376.781C378.012 106.171 379.21 106.561 380.202 107.286C381.194 108.01 381.928 109.031 382.296 110.2L384.053 117.077C384.505 118.849 384.546 120.7 384.173 122.489C383.8 124.279 383.022 125.961 381.899 127.406C380.775 128.852 379.336 130.024 377.69 130.833C376.043 131.642 374.234 132.067 372.398 132.075V132.075Z" fill="#FFFAE3"/>
<path d="M319.393 148.16H425.402V155.387C425.402 156.074 425.128 156.733 424.64 157.219C424.152 157.705 423.49 157.978 422.8 157.978H321.995C321.305 157.978 320.643 157.705 320.155 157.219C319.668 156.733 319.393 156.074 319.393 155.387V148.16Z" fill="#BAA462"/>
<path d="M299.818 375.01H305.437C306.26 375.01 307.075 375.171 307.836 375.485C308.597 375.799 309.288 376.259 309.87 376.838C310.452 377.418 310.914 378.106 311.229 378.864C311.544 379.621 311.706 380.433 311.706 381.252V388.493C311.706 390.148 311.046 391.736 309.87 392.907C308.694 394.078 307.099 394.735 305.437 394.735H299.818V375.01Z" fill="#3A739C"/>
<path fill-rule="evenodd" clip-rule="evenodd" d="M295.85 369.09V392.753C295.852 393.79 295.649 394.817 295.251 395.775C294.854 396.734 294.271 397.605 293.535 398.338C292.799 399.072 291.925 399.654 290.964 400.052C290.002 400.449 288.97 400.653 287.929 400.653H295.85C296.892 400.653 297.923 400.449 298.885 400.052C299.847 399.654 300.721 399.072 301.456 398.338C302.192 397.605 302.775 396.734 303.172 395.775C303.57 394.817 303.774 393.79 303.772 392.753V369.09H295.85Z" fill="#3A739C"/>
<path fill-rule="evenodd" clip-rule="evenodd" d="M295.85 392.753V369.09H272.086V392.753C272.086 394.846 272.92 396.853 274.406 398.335C275.891 399.816 277.906 400.65 280.008 400.653H287.929C288.97 400.653 290.002 400.449 290.963 400.052C291.925 399.654 292.799 399.072 293.535 398.338C294.27 397.605 294.854 396.734 295.251 395.775C295.648 394.817 295.852 393.79 295.85 392.753V392.753Z" fill="#335873"/>
<path d="M321.514 409.67H176.119V417.558H321.514V409.67Z" fill="#202022"/>
<path fill-rule="evenodd" clip-rule="evenodd" d="M184.041 471.564H176.119V400.641H190.856L184.041 471.564Z" fill="#2C415C"/>
<path d="M208.858 471.564H216.78V400.641H200.716L208.858 471.564Z" fill="#202022"/>
<path fill-rule="evenodd" clip-rule="evenodd" d="M288.801 471.564H280.879V400.641H296.865L288.801 471.564Z" fill="#2C415C"/>
<path d="M313.592 471.564H321.513V400.641H306.724L313.592 471.564Z" fill="#202022"/>
<path d="M321.514 400.369H176.119V410.187H321.514V400.369Z" fill="#2C415C"/>
<path opacity="0.1" d="M332.921 303.18L332.349 300.991C331.694 298.503 330.232 296.301 328.19 294.727C326.148 293.152 323.641 292.295 321.058 292.287H320.707C313.904 292.481 310.106 299.462 313.345 305.951C314.407 307.923 314.7 310.215 314.167 312.389C313.634 314.562 312.313 316.462 310.457 317.724L298.4 325.741C296.201 327.242 294.383 329.23 293.087 331.55C291.792 333.869 291.055 336.456 290.934 339.107C290.798 342.699 291.586 346.266 293.223 349.469L294.771 352.642C295.889 354.96 298.946 354.3 299.31 351.658L300 346.697C300.256 342.704 301.933 338.932 304.729 336.058C307.525 333.184 311.257 331.395 315.257 331.013C325.663 329.873 333.649 321.61 333.896 310.29C333.917 307.885 333.588 305.491 332.921 303.18V303.18Z" fill="white"/>
<path d="M744.611 469.104H151.926C132.09 469.104 116 471.862 116 475.243C116 478.623 132.09 481.382 151.926 481.382H744.611C764.447 481.382 780.537 478.636 780.537 475.243C780.537 471.849 764.395 469.104 744.611 469.104Z" fill="#202022"/>
<path fill-rule="evenodd" clip-rule="evenodd" d="M707.996 475.579H712.666L701.245 432.838H679.367L707.996 475.579Z" fill="#202022"/>
<path fill-rule="evenodd" clip-rule="evenodd" d="M573.528 430.857H591.504L561.587 475.58H556.514L568.494 430.857H573.528Z" fill="#202022"/>
<path fill-rule="evenodd" clip-rule="evenodd" d="M442.546 336.854L603.757 293.777C616.66 290.565 625.765 283.312 633.166 274.168C634.734 272.227 636.176 270.19 637.484 268.067C641.189 262.589 643.897 256.504 645.484 250.091L658.712 200.965C658.94 200.011 659.24 199.076 659.609 198.167C659.609 197.999 659.727 197.843 659.792 197.688C660.17 196.798 660.604 195.933 661.092 195.098L661.209 194.916C662.762 192.217 664.842 189.855 667.326 187.969C669.81 186.083 672.649 184.71 675.673 183.933C677.584 183.405 679.557 183.13 681.54 183.117H690.254C692.925 183.114 695.561 183.718 697.963 184.883C700.364 186.047 702.466 187.742 704.11 189.837C705.755 191.933 706.897 194.374 707.451 196.976C708.005 199.577 707.956 202.27 707.307 204.85L658.569 398.051C655.463 410.746 648.163 422.035 637.84 430.103C627.518 438.171 614.772 442.551 601.649 442.54H445.563C442.458 442.54 439.481 441.312 437.286 439.126C435.09 436.94 433.857 433.975 433.857 430.883V348.174C433.844 345.596 434.69 343.086 436.262 341.038C437.834 338.99 440.044 337.518 442.546 336.854V336.854Z" fill="#2C415C"/>
<path fill-rule="evenodd" clip-rule="evenodd" d="M419.302 338.214L580.318 295.668C595.558 291.799 608.764 282.333 617.284 269.169C619.388 266.009 620.99 262.545 622.032 258.898L638.108 200.822C639.374 195.773 642.301 191.291 646.421 188.09C650.541 184.888 655.619 183.152 660.845 183.156H687.458C685.479 183.168 683.511 183.442 681.605 183.972C677.501 185.024 673.761 187.164 670.783 190.166C667.805 193.168 665.701 196.918 664.695 201.017L647.2 259.675C645.554 265.03 642.803 269.984 639.123 274.22C631.722 283.364 622.63 290.617 609.714 293.829L448.503 336.919C446.017 337.585 443.821 339.049 442.255 341.084C440.689 343.119 439.84 345.611 439.84 348.174V430.922C439.84 434.014 441.073 436.979 443.269 439.165C445.464 441.351 448.442 442.579 451.546 442.579H429.434C424.384 442.579 419.54 440.581 415.969 437.025C412.398 433.469 410.392 428.647 410.392 423.618V349.534C410.392 346.927 411.269 344.395 412.884 342.343C414.5 340.291 416.759 338.837 419.302 338.214Z" fill="#335873"/>
<path fill-rule="evenodd" clip-rule="evenodd" d="M764.968 189.916H691.217C685.995 189.917 680.923 191.656 676.808 194.857C672.693 198.058 669.771 202.537 668.506 207.582L620.38 393.905H734.609L781.747 211.636C782.383 209.082 782.432 206.418 781.892 203.842C781.351 201.266 780.234 198.845 778.625 196.758C777.015 194.671 774.953 192.972 772.593 191.788C770.234 190.603 767.636 189.963 764.994 189.916H764.968Z" fill="#335873"/>
<path fill-rule="evenodd" clip-rule="evenodd" d="M791.854 210.756L744.494 393.906H588.642L606.449 322.814L667.18 307.699L668.259 307.414C673.868 305.869 679.154 303.338 683.868 299.941C695.757 291.289 706.695 278.234 709.999 265.049L726.18 206.598C727.433 201.541 730.35 197.048 734.466 193.834C738.582 190.621 743.66 188.872 748.891 188.867H771.77V189.204C772.896 189.01 774.036 188.906 775.178 188.893C777.826 188.944 780.427 189.59 782.788 190.783C785.149 191.976 787.209 193.686 788.812 195.784C790.416 197.881 791.523 200.313 792.049 202.897C792.576 205.481 792.509 208.149 791.854 210.704V210.756Z" fill="#2C415C"/>
<path fill-rule="evenodd" clip-rule="evenodd" d="M440.62 434.744H546.239C550.62 434.744 554.821 433.011 557.919 429.926C561.017 426.842 562.758 422.658 562.758 418.295V390.915C562.758 388.755 562.33 386.616 561.5 384.621C560.67 382.625 559.453 380.812 557.919 379.284C556.385 377.757 554.564 376.546 552.56 375.719C550.556 374.892 548.408 374.467 546.239 374.467H440.62C436.241 374.47 432.043 376.205 428.948 379.289C425.853 382.373 424.114 386.555 424.114 390.915V418.308C424.117 422.666 425.858 426.845 428.952 429.926C432.047 433.008 436.244 434.741 440.62 434.744V434.744Z" fill="#2C415C"/>
<path fill-rule="evenodd" clip-rule="evenodd" d="M439.736 370.566C436.631 370.566 433.654 371.795 431.458 373.981C429.263 376.167 428.029 379.131 428.029 382.223V417.193C428.029 420.284 429.263 423.249 431.458 425.435C433.654 427.621 436.631 428.849 439.736 428.849H535.469V370.566H439.736Z" fill="#335873"/>
<path fill-rule="evenodd" clip-rule="evenodd" d="M476.833 428.902H486.601L510.014 370.619H500.258L476.833 428.902Z" fill="#2C415C"/>
<path fill-rule="evenodd" clip-rule="evenodd" d="M556.892 428.902H527.665L533.518 370.619H556.931L556.892 428.902Z" fill="#2C415C"/>
<path fill-rule="evenodd" clip-rule="evenodd" d="M661.756 237.619C665.279 238.314 668.629 239.694 671.616 241.68C674.603 243.666 677.166 246.219 679.161 249.193C681.156 252.167 682.542 255.503 683.24 259.011C683.938 262.519 683.935 266.129 683.231 269.636L671.42 328.747C670.713 332.289 668.622 335.405 665.607 337.412C662.592 339.418 658.9 340.15 655.343 339.445C651.786 338.741 648.656 336.659 646.642 333.657C644.627 330.655 643.892 326.979 644.599 323.437L661.756 237.619Z" fill="#2C415C"/>
<path fill-rule="evenodd" clip-rule="evenodd" d="M631.475 288.44C634.49 286.434 636.581 283.317 637.288 279.776C637.996 276.235 637.261 272.559 635.247 269.556C633.232 266.554 630.102 264.472 626.546 263.767C622.989 263.063 619.297 263.794 616.282 265.8L554.576 306.857C551.651 308.9 549.644 312.002 548.987 315.499C548.33 318.996 549.074 322.611 551.06 325.569C553.046 328.526 556.116 330.592 559.613 331.324C563.109 332.056 566.755 331.395 569.769 329.484L631.475 288.44Z" fill="#4E6B44"/>
<path fill-rule="evenodd" clip-rule="evenodd" d="M649.932 228.617H619.014C615.91 228.617 612.836 229.234 609.975 230.433C607.114 231.632 604.522 233.388 602.352 235.598C604.428 233.529 606.871 231.86 609.558 230.677L606 237.462L595.609 251.08C594.336 252.611 593.369 255.127 593 257.08C592.632 259.033 592.372 263.694 593 265.58L595.609 275.58L590.099 325.846H644.729L661.444 242.579C661.787 240.886 661.747 239.138 661.329 237.462C660.911 235.786 660.124 234.223 659.024 232.887C657.925 231.551 656.542 230.475 654.974 229.737C653.406 228.998 651.693 228.616 649.958 228.617H649.932Z" fill="#4E6B44"/>
<path fill-rule="evenodd" clip-rule="evenodd" d="M596.056 263.987C595.424 262.101 595.287 260.084 595.658 258.13C596.029 256.176 596.896 254.349 598.176 252.823L609.61 238.576V230.701C606.925 231.888 604.482 233.556 602.404 235.623L602.222 235.791C601.512 236.489 600.856 237.238 600.258 238.032L588.369 252.81C588.044 253.2 587.744 253.611 587.471 254.04C587.212 254.458 586.977 254.89 586.769 255.335C585.481 258.04 585.299 261.138 586.262 263.974L590.385 275.631L580.317 325.857H590.099L600.205 275.605L596.056 263.987Z" fill="#678C5A"/>
<path fill-rule="evenodd" clip-rule="evenodd" d="M619.378 331.674C622.465 331.674 625.483 330.762 628.05 329.055C630.617 327.347 632.617 324.919 633.798 322.08C634.98 319.24 635.289 316.115 634.687 313.1C634.085 310.085 632.598 307.316 630.415 305.142C628.232 302.968 625.451 301.488 622.423 300.888C619.395 300.289 616.257 300.597 613.405 301.773C610.553 302.949 608.115 304.941 606.4 307.497C604.685 310.053 603.77 313.058 603.77 316.132C603.77 320.254 605.414 324.207 608.341 327.122C611.268 330.037 615.238 331.674 619.378 331.674Z" fill="#4E6B44"/>
<path fill-rule="evenodd" clip-rule="evenodd" d="M623.527 370.568L642.18 323.941H640.229L636.326 333.655H498.84C496.4 333.84 494.057 334.687 492.066 336.105C490.075 337.523 488.513 339.458 487.55 341.698L444.158 450.337H469.028L501.39 370.606L623.527 370.568Z" fill="#23252B"/>
<path d="M504.421 323.902H502.469C492.701 323.902 481.775 331.673 477.899 341.4L434.403 450.298H444.158L487.55 341.698C488.514 339.458 490.076 337.523 492.066 336.105C494.057 334.687 496.4 333.84 498.841 333.655H636.353L640.255 323.941L504.421 323.902Z" fill="#282D3B"/>
<path d="M400.077 473.637H467.714C468.059 473.637 468.39 473.501 468.634 473.258C468.878 473.015 469.015 472.686 469.015 472.342V450.324H434.403L413.006 459.559C404.76 463.25 399.31 464.118 398.776 472.264C398.766 472.441 398.792 472.618 398.852 472.784C398.913 472.95 399.007 473.102 399.129 473.231C399.251 473.359 399.398 473.462 399.561 473.532C399.724 473.602 399.899 473.638 400.077 473.637V473.637Z" fill="#453A29"/>
<path d="M438.773 473.635H514.215C514.56 473.635 514.891 473.499 515.135 473.256C515.379 473.013 515.515 472.684 515.515 472.34V450.322L482.75 446.566L451.676 459.518C443.443 463.209 437.993 464.077 437.446 472.224C437.43 472.406 437.452 472.589 437.512 472.762C437.571 472.934 437.667 473.092 437.792 473.226C437.917 473.359 438.069 473.464 438.239 473.535C438.408 473.606 438.59 473.64 438.773 473.635Z" fill="#695532"/>
<path fill-rule="evenodd" clip-rule="evenodd" d="M552.911 341.398L484.064 444.585C483.906 444.825 483.803 445.097 483.763 445.381C483.722 445.665 483.745 445.954 483.829 446.229C483.914 446.503 484.058 446.756 484.251 446.969C484.445 447.181 484.683 447.349 484.948 447.46L490.802 449.908L515.737 460.192L584.298 357.459C585.862 355.118 586.837 352.436 587.14 349.641C587.443 346.845 587.066 344.018 586.04 341.398H552.911Z" fill="#23252B"/>
<path d="M575.947 333.616H580.097L579.55 333.189C577.631 331.91 575.477 331.021 573.212 330.572C570.947 330.122 568.615 330.122 566.35 330.571C564.085 331.019 561.931 331.908 560.011 333.186C558.091 334.465 556.443 336.107 555.162 338.02L482.764 446.607L490.906 449.974L562.979 341.97C566.049 337.359 570.081 333.616 575.947 333.616Z" fill="#282D3B"/>
<path fill-rule="evenodd" clip-rule="evenodd" d="M584.232 320.004C584.232 312.479 575.479 306.404 564.722 306.404C553.965 306.404 545.211 312.479 545.211 320.004H584.232Z" fill="#FFC680"/>
<path fill-rule="evenodd" clip-rule="evenodd" d="M644.04 315.795L658.231 245.117C658.684 242.935 659.68 240.901 661.128 239.202C662.575 237.502 664.428 236.192 666.516 235.391C665.777 235.09 665.01 234.86 664.227 234.704C660.752 234.027 657.148 234.742 654.199 236.694C651.25 238.646 649.194 241.678 648.475 245.13L634.323 315.795C633.865 318.138 634.048 320.561 634.852 322.809C635.657 325.058 637.054 327.05 638.897 328.577C640.74 330.104 642.961 331.109 645.328 331.487C647.695 331.866 650.121 331.604 652.352 330.728C649.43 329.601 646.997 327.49 645.479 324.761C643.96 322.032 643.451 318.859 644.04 315.795V315.795Z" fill="#678C5A"/>
<path fill-rule="evenodd" clip-rule="evenodd" d="M660.585 320.975L674.776 250.284C675.712 249.109 676.347 247.725 676.626 246.251C676.905 244.777 676.821 243.258 676.379 241.824C675.937 240.39 675.151 239.085 674.09 238.02C673.028 236.956 671.723 236.165 670.286 235.715C668.849 235.265 667.324 235.17 665.842 235.438C664.36 235.706 662.965 236.328 661.779 237.252C660.592 238.176 659.649 239.374 659.031 240.742C658.413 242.109 658.138 243.606 658.23 245.103L644.04 315.794C643.103 316.969 642.468 318.353 642.189 319.827C641.91 321.301 641.995 322.82 642.436 324.254C642.878 325.688 643.664 326.993 644.725 328.058C645.787 329.122 647.092 329.913 648.529 330.363C649.966 330.813 651.491 330.908 652.973 330.64C654.455 330.373 655.85 329.75 657.037 328.826C658.223 327.902 659.166 326.704 659.784 325.336C660.402 323.969 660.677 322.472 660.585 320.975V320.975Z" fill="#4E6B44"/>
<path fill-rule="evenodd" clip-rule="evenodd" d="M627.195 320.004C627.195 312.479 618.442 306.404 607.685 306.404C596.928 306.404 588.174 312.479 588.174 320.004H627.195Z" fill="#FFC680"/>
<path fill-rule="evenodd" clip-rule="evenodd" d="M550.05 257.785H489.852C489.247 257.785 488.649 257.926 488.107 258.195C487.566 258.465 487.094 258.857 486.731 259.339C486.367 259.822 486.121 260.382 486.013 260.976C485.905 261.569 485.937 262.179 486.106 262.759L503.341 321.041C503.576 321.853 504.069 322.566 504.748 323.073C505.426 323.581 506.252 323.854 507.1 323.852H567.284C567.894 323.856 568.496 323.719 569.042 323.45C569.589 323.181 570.064 322.789 570.431 322.304C570.797 321.819 571.045 321.256 571.154 320.659C571.262 320.062 571.229 319.447 571.056 318.865L553.796 260.583C553.559 259.776 553.066 259.067 552.391 258.562C551.716 258.058 550.894 257.785 550.05 257.785Z" fill="#606060"/>
<path fill-rule="evenodd" clip-rule="evenodd" d="M556.892 316.119H607.62C608.137 316.119 608.634 316.324 608.999 316.688C609.365 317.052 609.571 317.547 609.571 318.062V321.947C609.571 322.463 609.365 322.957 608.999 323.321C608.634 323.686 608.137 323.89 607.62 323.89H556.892V316.119Z" fill="#606060"/>
<path fill-rule="evenodd" clip-rule="evenodd" d="M577.274 336.854L699.438 293.777C712.341 290.565 721.446 283.312 728.834 274.168C730.41 272.234 731.853 270.196 733.152 268.067C736.867 262.593 739.579 256.506 741.165 250.091L754.393 200.965C754.621 200.011 754.921 199.076 755.29 198.167C755.338 198.003 755.398 197.842 755.472 197.688C755.85 196.798 756.285 195.933 756.773 195.098L756.89 194.916C758.443 192.217 760.523 189.855 763.007 187.969C765.492 186.083 768.33 184.71 771.354 183.933C773.265 183.404 775.238 183.129 777.221 183.117H786.039C788.71 183.114 791.346 183.718 793.747 184.883C796.149 186.047 798.251 187.742 799.896 189.837C801.54 191.933 802.682 194.374 803.236 196.976C803.79 199.577 803.741 202.27 803.092 204.85L754.354 398.051C751.248 410.746 743.948 422.035 733.626 430.103C723.303 438.171 710.557 442.551 697.435 442.54H580.37C577.265 442.54 574.287 441.312 572.092 439.126C569.897 436.94 568.663 433.975 568.663 430.883V348.174C568.646 345.606 569.481 343.104 571.038 341.058C572.595 339.011 574.787 337.533 577.274 336.854V336.854Z" fill="#2C415C"/>
<path fill-rule="evenodd" clip-rule="evenodd" d="M756.591 183.092C751.367 183.09 746.292 184.828 742.175 188.029C738.057 191.231 735.133 195.711 733.867 200.758L717.738 258.807C716.685 262.45 715.085 265.913 712.991 269.078C704.627 282.341 690.879 290.578 676.024 295.642L554.043 338.188C551.508 338.819 549.257 340.276 547.649 342.327C546.042 344.378 545.17 346.906 545.172 349.508V423.553C545.172 426.044 545.665 428.511 546.623 430.812C547.581 433.114 548.984 435.205 550.754 436.965C552.524 438.726 554.624 440.123 556.936 441.075C559.248 442.027 561.726 442.516 564.228 442.515H593.051C590.55 442.516 588.073 442.027 585.762 441.075C583.451 440.122 581.351 438.726 579.582 436.965C577.814 435.204 576.411 433.113 575.455 430.811C574.499 428.51 574.007 426.044 574.009 423.553V348.174C574.106 345.572 575.045 343.07 576.685 341.042C578.326 339.014 580.581 337.568 583.114 336.919L705.29 293.777C717.894 289.516 727.298 283.312 734.713 274.168C738.39 269.933 741.137 264.979 742.777 259.623L760.272 200.965C761.278 196.866 763.382 193.116 766.359 190.115C769.337 187.113 773.078 184.972 777.181 183.921C779.088 183.392 781.056 183.118 783.034 183.105L756.591 183.092Z" fill="#335873"/>
<path fill-rule="evenodd" clip-rule="evenodd" d="M544.197 257.785H477.496C477.186 257.772 476.878 257.833 476.597 257.963C476.316 258.093 476.07 258.287 475.88 258.53C475.689 258.773 475.559 259.058 475.501 259.36C475.443 259.663 475.458 259.976 475.545 260.271L493.508 321.144C493.748 321.964 494.252 322.683 494.944 323.189C495.635 323.694 496.474 323.959 497.332 323.942H566.686L547.969 260.621C547.738 259.803 547.245 259.082 546.563 258.57C545.882 258.057 545.051 257.782 544.197 257.785Z" fill="#8A8A8A"/>
<path d="M521.408 285.008H517.05C516.446 285.008 515.85 285.149 515.31 285.418C514.769 285.687 514.298 286.077 513.935 286.558C513.572 287.039 513.326 287.597 513.216 288.189C513.107 288.781 513.137 289.39 513.304 289.968L514.423 293.854C514.655 294.666 515.146 295.38 515.821 295.89C516.497 296.399 517.321 296.676 518.169 296.677H522.461C523.067 296.679 523.664 296.54 524.206 296.272C524.748 296.003 525.221 295.613 525.585 295.132C525.95 294.651 526.197 294.092 526.307 293.499C526.418 292.906 526.388 292.296 526.22 291.717L525.102 287.831C524.873 287.028 524.39 286.319 523.724 285.811C523.059 285.302 522.246 285.021 521.408 285.008Z" fill="#C0C0C0"/>
<path fill-rule="evenodd" clip-rule="evenodd" d="M575.336 163.174L575.18 163.459C573.879 166.02 573.26 168.871 573.384 171.738C573.507 174.606 574.367 177.394 575.883 179.835C577.399 182.277 579.519 184.29 582.04 185.681C584.561 187.072 587.399 187.796 590.281 187.782H637.992C643.565 182.218 647.984 175.617 650.999 168.354C652.657 164.34 653.649 160.084 653.939 155.752L594.274 141.674C586.451 147.367 579.985 154.708 575.336 163.174Z" fill="#23252B"/>
<path fill-rule="evenodd" clip-rule="evenodd" d="M656.436 179.996H595.9L586.613 211.728C586.099 213.468 586 215.303 586.323 217.088C586.647 218.873 587.384 220.558 588.477 222.009C589.569 223.46 590.987 224.637 592.616 225.447C594.246 226.257 596.043 226.677 597.864 226.674H643.767C645.171 226.659 646.523 226.142 647.576 225.217C648.629 224.292 649.313 223.021 649.503 221.636L656.436 179.996Z" fill="#23252B"/>
<path d="M629.5 228.616L622.617 195.551H613.512L619.937 228.616C620.266 230.204 621.116 231.637 622.352 232.692C623.588 233.747 625.14 234.364 626.766 234.445H636.5C634.874 234.364 633.736 233.635 632.5 232.58C631.264 231.525 629.829 230.204 629.5 228.616Z" fill="#FFC680"/>
<path d="M643.832 232.67C644.278 232.106 644.583 231.444 644.723 230.74C644.863 230.035 644.834 229.308 644.638 228.616L638.226 195.551H622.617L629.043 228.616C629.372 230.204 630.221 231.637 631.457 232.692C632.693 233.747 634.246 234.364 635.871 234.445H640.086C640.806 234.462 641.521 234.311 642.171 234.003C642.822 233.695 643.391 233.238 643.832 232.67V232.67Z" fill="#EBB66F"/>
<path d="M627.235 219.33C623.39 219.838 619.48 219.518 615.769 218.391C612.059 217.264 608.636 215.356 605.731 212.796C602.826 210.237 601.575 206.61 600 203.08C598.425 199.55 598.893 195.942 598.933 192.08V171.08C598.932 168.805 597.102 166.42 598.068 164.359C599.035 162.298 600.444 160.473 602.196 159.014C598.753 159.802 595.681 161.73 593.481 164.483C591.281 167.235 590.084 170.65 590.086 174.167V195.55C590.078 199.998 591.165 204.38 593.253 208.312C595.341 212.245 598.365 215.607 602.061 218.105C605.757 220.603 610.012 222.16 614.453 222.64C618.894 223.12 623.386 222.508 627.534 220.858L627.235 219.33Z" fill="#FFC680"/>
<path d="M644.729 195.551V174.168C644.729 170.046 643.085 166.093 640.158 163.178C637.23 160.263 633.26 158.626 629.121 158.626H605.708C604.172 158.5 602.63 158.769 601.228 159.405C599.826 160.041 598.611 161.024 597.698 162.26C596.785 163.495 596.205 164.943 596.014 166.466C595.822 167.988 596.025 169.534 596.603 170.956V192.352C595.894 195.745 595.923 199.251 596.69 202.632C597.457 206.013 598.943 209.191 601.048 211.952C603.153 214.712 605.828 216.991 608.892 218.635C611.957 220.28 615.34 221.25 618.813 221.482C622.286 221.714 625.769 221.201 629.027 219.979C632.284 218.757 635.24 216.854 637.696 214.398C640.153 211.941 642.051 208.989 643.265 205.74C644.478 202.491 644.977 199.021 644.729 195.564V195.551Z" fill="#EBB66F"/>
<path fill-rule="evenodd" clip-rule="evenodd" d="M671.589 190.681L666.594 167.653C664.324 156.462 657.698 146.62 648.164 140.277C638.63 133.933 626.963 131.604 615.71 133.797L605.304 135.857L603.626 136.245C599.346 137.594 595.431 139.897 592.18 142.98C590.88 144.12 600.726 162.77 600.726 162.77C603.256 168.405 607.202 173.296 612.182 176.971C617.162 180.646 623.009 182.981 629.16 183.752C629.801 183.868 630.448 183.946 631.098 183.985H646.03L636.626 228.617C642.488 228.217 648.151 226.336 653.08 223.151L657.776 219.887C661.729 217.205 665.035 213.681 667.453 209.571C669.871 205.461 671.342 200.867 671.758 196.121C671.956 194.309 671.899 192.478 671.589 190.681Z" fill="#23252B"/>
<path fill-rule="evenodd" clip-rule="evenodd" d="M629.12 183.751C629.766 183.867 630.417 183.945 631.072 183.984H643.103V179.024H635.949C635.39 179.024 634.727 178.894 634.011 178.816C627.853 178.049 621.997 175.716 617.008 172.041C612.019 168.366 608.064 163.473 605.526 157.835L604.576 155.879C602.615 156.948 600.793 158.253 599.152 159.764L600.635 162.795C603.173 168.432 607.128 173.322 612.118 176.993C617.108 180.663 622.964 182.991 629.12 183.751V183.751Z" fill="#2C415C"/>
<path d="M641.841 191.666C645.123 191.661 648.329 190.687 651.055 188.868C653.781 187.049 655.904 184.466 657.157 181.446C658.409 178.426 658.734 175.104 658.091 171.9C657.447 168.696 655.864 165.753 653.542 163.445C651.22 161.136 648.263 159.565 645.044 158.929C641.825 158.293 638.489 158.622 635.458 159.874C632.427 161.125 629.836 163.244 628.014 165.961C626.191 168.678 625.218 171.872 625.218 175.14C625.218 177.312 625.648 179.463 626.484 181.47C627.32 183.477 628.545 185.3 630.089 186.835C631.633 188.37 633.465 189.586 635.482 190.415C637.499 191.244 639.66 191.669 641.841 191.666V191.666Z" fill="#23252B"/>
<path fill-rule="evenodd" clip-rule="evenodd" d="M603.965 209.162C603.787 209.166 603.613 209.217 603.462 209.31C603.311 209.404 603.188 209.536 603.106 209.693C603.023 209.846 602.979 210.018 602.979 210.192C602.979 210.366 603.023 210.537 603.106 210.69C604.002 212.01 605.209 213.091 606.622 213.838C608.035 214.585 609.61 214.975 611.21 214.975C612.809 214.975 614.385 214.585 615.797 213.838C617.21 213.091 618.417 212.01 619.313 210.69C619.402 210.539 619.449 210.367 619.449 210.192C619.449 210.016 619.402 209.844 619.313 209.693C619.233 209.537 619.113 209.405 618.964 209.312C618.815 209.218 618.644 209.166 618.468 209.162H603.965Z" fill="white"/>
<path d="M642.817 199.45C644.361 199.45 645.87 198.995 647.153 198.141C648.436 197.287 649.436 196.073 650.027 194.653C650.618 193.233 650.773 191.671 650.471 190.163C650.17 188.656 649.427 187.271 648.336 186.184C647.244 185.098 645.853 184.357 644.339 184.058C642.825 183.758 641.256 183.912 639.83 184.5C638.404 185.088 637.186 186.084 636.328 187.362C635.47 188.64 635.013 190.142 635.013 191.679C635.013 193.74 635.835 195.717 637.298 197.174C638.762 198.632 640.747 199.45 642.817 199.45V199.45Z" fill="#EBB66F"/>
<path d="M642.817 195.55C643.589 195.55 644.343 195.322 644.985 194.895C645.627 194.469 646.127 193.862 646.422 193.152C646.718 192.442 646.795 191.66 646.644 190.907C646.494 190.153 646.122 189.461 645.576 188.917C645.031 188.374 644.335 188.004 643.578 187.854C642.821 187.704 642.037 187.781 641.324 188.075C640.611 188.369 640.001 188.867 639.573 189.506C639.144 190.145 638.915 190.896 638.915 191.665C638.915 192.695 639.326 193.684 640.058 194.412C640.79 195.141 641.782 195.55 642.817 195.55V195.55Z" fill="#FFC680"/>
<path fill-rule="evenodd" clip-rule="evenodd" d="M642.817 201.393C642.298 201.393 641.801 201.597 641.433 201.961C641.065 202.325 640.856 202.819 640.853 203.335V207.221C640.908 207.697 641.138 208.137 641.497 208.456C641.857 208.775 642.322 208.952 642.804 208.952C643.286 208.952 643.751 208.775 644.111 208.456C644.47 208.137 644.7 207.697 644.755 207.221V203.335C644.755 202.822 644.551 202.33 644.188 201.966C643.825 201.602 643.332 201.396 642.817 201.393V201.393Z" fill="white"/>
<path fill-rule="evenodd" clip-rule="evenodd" d="M642.817 199.451C642.298 199.451 641.801 199.655 641.433 200.019C641.065 200.383 640.856 200.877 640.853 201.394V205.279H644.755V201.394C644.755 200.881 644.551 200.389 644.188 200.025C643.825 199.661 643.332 199.455 642.817 199.451V199.451Z" fill="white"/>
<path fill-rule="evenodd" clip-rule="evenodd" d="M580.994 163.456L581.163 163.184C585.539 155.536 591.242 148.722 598.008 143.057C601.288 140.019 605.187 137.722 609.441 136.322L611.119 135.934L621.524 133.874C623.354 133.523 625.205 133.294 627.065 133.188C623.254 132.904 619.421 133.135 615.671 133.874L605.265 135.934L603.588 136.322C599.331 137.723 595.427 140.02 592.141 143.057C585.35 148.744 579.625 155.585 575.232 163.262L575.076 163.534C573.873 165.933 573.266 168.584 573.307 171.265C573.347 173.946 574.034 176.579 575.308 178.941C576.583 181.303 578.408 183.325 580.631 184.839C582.854 186.352 585.41 187.312 588.083 187.637V185.694C584.212 183.65 581.3 180.176 579.975 176.017C578.649 171.859 579.015 167.349 580.994 163.456Z" fill="#2C415C"/>
<path d="M594.001 185.836H586.197C585.679 185.836 585.183 186.041 584.817 186.405C584.451 186.769 584.246 187.263 584.246 187.779V191.664C584.246 192.179 584.451 192.674 584.817 193.038C585.183 193.402 585.679 193.607 586.197 193.607H594.001C594.518 193.607 595.015 193.402 595.38 193.038C595.746 192.674 595.952 192.179 595.952 191.664V187.779C595.952 187.263 595.746 186.769 595.38 186.405C595.015 186.041 594.518 185.836 594.001 185.836V185.836Z" fill="#FFC680"/>
<path d="M629.12 181.94H611.548C610.513 181.94 609.52 182.349 608.788 183.078C608.057 183.806 607.646 184.795 607.646 185.825V187.768C606.449 187.117 605.107 186.776 603.743 186.776C602.38 186.776 601.038 187.117 599.841 187.768V185.825C599.841 184.795 599.43 183.806 598.698 183.078C597.967 182.349 596.974 181.94 595.939 181.94H580.33C579.812 181.943 579.316 182.15 578.95 182.517C578.585 182.883 578.379 183.379 578.379 183.895V184.789C578.38 185.106 578.458 185.418 578.608 185.698C578.758 185.978 578.974 186.217 579.238 186.395C579.558 186.613 579.824 186.901 580.014 187.238C580.203 187.576 580.312 187.952 580.33 188.338V191.187C580.332 192.007 580.496 192.818 580.813 193.575C581.129 194.332 581.592 195.019 582.176 195.598C582.759 196.176 583.451 196.634 584.213 196.947C584.974 197.259 585.79 197.418 586.613 197.417H593.598C594.42 197.418 595.235 197.259 595.996 196.946C596.757 196.634 597.448 196.175 598.03 195.597C598.613 195.018 599.074 194.331 599.39 193.574C599.705 192.817 599.867 192.006 599.867 191.187C601.064 190.536 602.406 190.195 603.769 190.195C605.133 190.195 606.475 190.536 607.672 191.187C607.672 192.006 607.834 192.817 608.149 193.574C608.464 194.331 608.926 195.018 609.509 195.597C610.091 196.175 610.782 196.634 611.543 196.946C612.304 197.259 613.118 197.418 613.941 197.417H620.926C621.749 197.418 622.565 197.259 623.326 196.947C624.088 196.634 624.779 196.176 625.363 195.598C625.946 195.019 626.409 194.332 626.726 193.575C627.043 192.818 627.207 192.007 627.208 191.187V188.869C627.203 188.358 627.361 187.859 627.661 187.444C627.96 187.029 628.385 186.721 628.873 186.563L629.784 186.265C630.167 186.133 630.498 185.884 630.731 185.554C630.964 185.224 631.088 184.83 631.085 184.426V183.96C631.095 183.697 631.052 183.435 630.958 183.19C630.864 182.944 630.721 182.72 630.537 182.531C630.353 182.342 630.133 182.192 629.89 182.091C629.646 181.989 629.384 181.938 629.12 181.94V181.94ZM595.913 191.666C595.913 192.181 595.708 192.676 595.342 193.04C594.976 193.404 594.479 193.609 593.962 193.609H586.158C585.64 193.609 585.144 193.404 584.778 193.04C584.412 192.676 584.207 192.181 584.207 191.666V187.781C584.207 187.265 584.412 186.771 584.778 186.407C585.144 186.043 585.64 185.838 586.158 185.838H593.962C594.479 185.838 594.976 186.043 595.342 186.407C595.708 186.771 595.913 187.265 595.913 187.781V191.666ZM623.228 191.666C623.228 192.181 623.023 192.676 622.657 193.04C622.291 193.404 621.795 193.609 621.277 193.609H613.473C612.955 193.609 612.459 193.404 612.093 193.04C611.727 192.676 611.522 192.181 611.522 191.666V187.781C611.522 187.265 611.727 186.771 612.093 186.407C612.459 186.043 612.955 185.838 613.473 185.838H621.277C621.795 185.838 622.291 186.043 622.657 186.407C623.023 186.771 623.228 187.265 623.228 187.781V191.666Z" fill="#CC8729"/>
<path fill-rule="evenodd" clip-rule="evenodd" d="M614.501 189.723H615.476C615.994 189.723 616.49 189.927 616.856 190.292C617.221 190.656 617.427 191.15 617.427 191.665V192.637C617.427 192.894 617.324 193.141 617.141 193.324C616.958 193.506 616.71 193.608 616.452 193.608H614.501C614.372 193.61 614.244 193.586 614.125 193.538C614.006 193.49 613.898 193.418 613.807 193.328C613.716 193.237 613.644 193.129 613.596 193.011C613.547 192.892 613.523 192.765 613.525 192.637V190.694C613.525 190.436 613.628 190.189 613.811 190.007C613.994 189.825 614.242 189.723 614.501 189.723V189.723Z" fill="#23252B"/>
<path fill-rule="evenodd" clip-rule="evenodd" d="M587.159 189.723H588.135C588.652 189.723 589.149 189.927 589.515 190.292C589.881 190.656 590.086 191.15 590.086 191.665V192.637C590.088 192.765 590.064 192.892 590.015 193.011C589.967 193.129 589.895 193.237 589.804 193.328C589.713 193.418 589.605 193.49 589.486 193.538C589.367 193.586 589.239 193.61 589.11 193.608H587.159C587.032 193.608 586.906 193.583 586.788 193.534C586.671 193.485 586.564 193.413 586.474 193.323C586.385 193.233 586.314 193.125 586.266 193.008C586.219 192.89 586.195 192.764 586.197 192.637V190.694C586.197 190.439 586.298 190.194 586.478 190.012C586.658 189.83 586.903 189.726 587.159 189.723V189.723Z" fill="#23252B"/>
<path d="M789.733 44.7793H718.87C718.18 44.7793 717.518 45.0522 717.03 45.538C716.543 46.0238 716.269 46.6826 716.269 47.3696V135.532C716.269 136.219 716.543 136.878 717.03 137.364C717.518 137.849 718.18 138.122 718.87 138.122H792.374C793.064 138.122 793.725 137.849 794.213 137.364C794.701 136.878 794.975 136.219 794.975 135.532V47.3826C794.975 46.6956 794.701 46.0367 794.213 45.551C793.725 45.0652 793.064 44.7923 792.374 44.7923L789.733 44.7793ZM789.733 132.929H721.471V50.0377H789.733V132.929Z" fill="#202022"/>
<path opacity="0.75" d="M721.472 50V132.891H789.733V50H721.472ZM781.851 125.12H729.354V57.8487H781.851V125.12Z" fill="#313130"/>
<path d="M772.668 93.7235C771.826 93.7259 771.018 94.0559 770.417 94.643L760.975 104.059L746.263 89.4235C745.969 89.1314 745.621 88.8998 745.237 88.742C744.853 88.5842 744.441 88.5033 744.026 88.5039H743.792C743.374 88.5023 742.961 88.5827 742.575 88.7405C742.189 88.8983 741.838 89.1304 741.542 89.4235L729.354 101.572V125.092H781.851V101.572L774.905 94.643C774.308 94.0578 773.506 93.7279 772.668 93.7235V93.7235Z" fill="#202022"/>
<path fill-rule="evenodd" clip-rule="evenodd" d="M764.98 80.2042C763.606 79.9234 762.345 79.2473 761.353 78.2596C760.361 77.272 759.682 76.0162 759.4 74.6479C759.13 73.2993 759.252 71.902 759.751 70.62C759.803 70.487 759.809 70.3407 759.769 70.2038C759.729 70.067 759.644 69.9472 759.529 69.863C759.413 69.7789 759.273 69.7351 759.13 69.7385C758.986 69.7418 758.848 69.7922 758.737 69.8817C757.84 70.5579 757.1 71.4176 756.565 72.4028C756.031 73.3881 755.714 74.476 755.637 75.5933C755.561 76.7106 755.725 77.8312 756.12 78.8798C756.515 79.9283 757.132 80.8803 757.927 81.6717C758.723 82.4632 759.68 83.0755 760.734 83.4676C761.787 83.8597 762.913 84.0224 764.035 83.9447C765.157 83.867 766.249 83.5507 767.238 83.0172C768.226 82.4836 769.089 81.7453 769.767 80.8518C769.857 80.7408 769.907 80.6033 769.911 80.4607C769.914 80.3181 769.871 80.1784 769.786 80.0633C769.702 79.9481 769.581 79.8639 769.444 79.8239C769.306 79.7838 769.159 79.79 769.026 79.8416C767.739 80.3426 766.336 80.4684 764.98 80.2042V80.2042Z" fill="#335873"/>
</svg>
