<svg width="109" height="107" viewBox="0 0 109 107" fill="none" xmlns="http://www.w3.org/2000/svg">
<path opacity="0.9" d="M108.998 61.5C108.998 94.3489 84.7764 107 51.998 107C13.998 107 0.998047 91.2391 0.998047 61.5C0.998047 28.6511 13.998 0 56.998 0C103.998 0 108.998 28.6511 108.998 61.5Z" fill="#AAAAAA" fill-opacity="0.15"/>
<rect x="25.484" y="38.5098" width="34.9216" height="48.8903" fill="#F1A031"/>
<path d="M25.484 38.5098V50.1503H60.4057V87.4001H86.0149V38.5098H25.484V38.5098Z" fill="#CC8729"/>
<rect x="30.141" y="75.7598" width="11.6405" height="2.32811" rx="1.03" fill="#CC8729"/>
<rect x="30.141" y="80.416" width="9.31244" height="2.32811" rx="1.03" fill="#CC8729"/>
<rect x="30.141" y="64.1191" width="13.9687" height="6.98433" rx="1.03" fill="#F7F7F7"/>
<rect x="61.078" y="31.5254" width="9.31244" height="11.6405" transform="rotate(180 61.078 31.5254)" fill="#DE5833"/>
<path d="M44.7812 22.2128H68.0622L56.4217 10.5723L44.7812 22.2128V22.2128Z" fill="#DE5833"/>
<path d="M60.4057 38.5098L67.39 45.4941H92.9992L86.0149 38.5098H60.4057V38.5098Z" fill="#F1A031"/>
<path d="M18.4999 45.4941H53.4215L60.4059 38.5098H25.4842L18.4999 45.4941V45.4941Z" fill="#FFC16C"/>
</svg>
