<svg width="112" height="102" viewBox="0 0 112 102" fill="none" xmlns="http://www.w3.org/2000/svg">
<path opacity="0.9" d="M111.5 50C111.5 81.4802 91 105 49 101C14.5977 97.7236 0 81.4802 0 50C0 18.5198 21.5198 0.5 53 0.5C84.4802 0.5 111.5 3.57466 111.5 50Z" fill="#AAAAAA" fill-opacity="0.15"/>
<path d="M77.4082 28.0703H86.4784V75.6889C86.4784 78.1936 84.448 80.224 81.9433 80.224H77.4082V28.0703Z" fill="#BBBBBB"/>
<path d="M77.4082 19H81.9433C84.448 19 86.4784 21.0304 86.4784 23.5351V28.0702H77.4082V19Z" fill="#9A5CB4"/>
<path d="M22.9863 28.0703H81.9427V76.8227C81.9427 78.7012 80.4199 80.224 78.5414 80.224H26.3877C24.5092 80.224 22.9863 78.7012 22.9863 76.8227V28.0703Z" fill="#DDDDDD"/>
<path d="M26.3877 19H78.5414C80.4199 19 81.9427 20.5228 81.9427 22.4013V28.0702H22.9863V22.4013C22.9863 20.5228 24.5092 19 26.3877 19Z" fill="#C296E6"/>
<path d="M91.013 84.1913L86.4779 79.6562L89.4994 76.629L75.8941 71.1982C75.6779 71.0968 75.4213 71.1417 75.2525 71.3106C75.0836 71.4794 75.0387 71.736 75.1401 71.9522L80.5709 85.5575L83.5981 82.536L88.1332 87.0711L91.013 84.1913Z" fill="#9A5CB4"/>
<rect x="27.5221" y="32.6055" width="49.8862" height="20.408" rx="1.8" fill="#94B1FF"/>
<rect x="27.5221" y="57.5488" width="43.0835" height="7.93644" rx="1.2" fill="#BBBBBB"/>
<rect x="27.5221" y="70.0195" width="31.7458" height="5.66888" rx="0.9" fill="#BBBBBB"/>
<rect x="27.5221" y="21.834" width="3.40133" height="3.40133" rx="0.9" fill="#F7F7F7"/>
<rect x="32.6232" y="21.834" width="3.40133" height="3.40133" rx="0.9" fill="#F7F7F7"/>
<rect x="37.7252" y="21.834" width="3.40133" height="3.40133" rx="0.9" fill="#F7F7F7"/>
<path d="M38.859 46.2108C41.3636 46.2108 43.3941 44.1804 43.3941 41.6757C43.3941 39.1711 41.3636 37.1406 38.859 37.1406C36.3543 37.1406 34.3239 39.1711 34.3239 41.6757C34.3239 44.1804 36.3543 46.2108 38.859 46.2108Z" fill="#F7F7F7"/>
<path d="M77.4074 49.6124V48.4786L67.674 38.7451C67.2487 38.3193 66.6715 38.0801 66.0697 38.0801C65.4678 38.0801 64.8907 38.3193 64.4654 38.7451L55.8657 47.3448L52.9349 44.414C52.5096 43.9882 51.9324 43.749 51.3306 43.749C50.7287 43.749 50.1516 43.9882 49.7263 44.414L41.1266 53.0137H74.0061C75.8846 53.0137 77.4074 51.4909 77.4074 49.6124Z" fill="#668BFF"/>
</svg>
