<svg width="111" height="105" viewBox="0 0 111 105" fill="none" xmlns="http://www.w3.org/2000/svg">
<path opacity="0.9" d="M110.501 53C110.501 95.5 85.4814 105 54.0012 105C22.521 105 0.00122068 93.5 0.0012207 53C0.00122073 7 27.021 0 58.5012 0C89.9815 0 110.501 21.5198 110.501 53Z" fill="#AAAAAA" fill-opacity="0.15"/>
<path d="M59.2368 19.1582H52.2601L22.4417 29.9721V50.9022C22.3857 65.1845 30.3339 78.295 43.0229 84.8507L52.2322 89.546H59.2089L68.4181 84.8507C81.1094 78.2939 89.0579 65.18 88.9993 50.8952V29.9651L59.2368 19.1582Z" fill="#668BFF"/>
<path d="M44.2162 82.5139C32.3737 76.4378 24.9673 64.2054 25.0721 50.8955V31.8143L52.2324 21.9492L79.3927 31.8143V50.8955C79.4946 64.2065 72.0857 76.4385 60.2416 82.5139L52.2324 86.5952L44.2162 82.5139Z" fill="#CCDCFF"/>
<path fill-rule="evenodd" clip-rule="evenodd" d="M22.4417 29.9721L52.2322 19.1582L82.0226 29.9651V50.8952C82.0783 65.1811 74.1273 78.2945 61.4344 84.8507L52.2322 89.546L43.0229 84.8507C30.3339 78.295 22.3857 65.1845 22.4417 50.9022V29.9721ZM76.7623 33.6557L52.2322 24.7395L27.6952 33.6557V50.8951C27.5824 63.2286 34.4409 74.5693 45.416 80.1972L52.2322 83.6856L59.0485 80.1972C70.0197 74.5661 76.8748 63.2266 76.7623 50.8951V33.6557Z" fill="#94B1FF"/>
<path d="M52.2114 68.2182C60.9195 68.2182 67.9787 61.159 67.9787 52.4509C67.9787 43.7429 60.9195 36.6836 52.2114 36.6836C43.5034 36.6836 36.4441 43.7429 36.4441 52.4509C36.4441 61.159 43.5034 68.2182 52.2114 68.2182Z" fill="#94B1FF"/>
<path d="M41.7183 53.3291L45.2206 49.8199L48.7229 53.3291L57.4856 44.5664L60.9949 48.0687L48.7229 60.3337L41.7183 53.3291V53.3291Z" fill="white"/>
</svg>
